{
  "source": "C:\\Users\\Peter\\Desktop\\stuff\\MIUN\\quantitative_research\\video_compression\\videos\\HEVC_CLASS_B\\BQTerrace_1920x1080_60.y4m",
  "output": "C:\\Users\\Peter\\Desktop\\stuff\\MIUN\\quantitative_research\\video_compression\\compressed_videos\\HEVC_CLASS_B\\vp9\\12\\BQTerrace_1920x1080_60_vp9.webm",
  "codec": "vp9",
  "ok": "Input #0, yuv4mpegpipe, from 'C:\\Users\\Peter\\Desktop\\stuff\\MIUN\\quantitative_research\\video_compression\\videos\\HEVC_CLASS_B\\BQTerrace_1920x1080_60.y4m':\n  Duration: 00:00:10.00, start: 0.000000, bitrate: 1492994 kb/s\n  Stream #0:0: Video: rawvideo (I420 / 0x30323449), yuv420p(progressive), 1920x1080, 60 fps, 60 tbr, 60 tbn\n[out#0/webm @ 0000028cd9bf6cc0] Codec AVOption b:a (set bitrate (in bits/s)) has not been used for any stream. The most likely reason is either wrong type (e.g. a video option with no video streams) or that it is a private option of some decoder which was not actually used for any stream.\nStream mapping:\n  Stream #0:0 -> #0:0 (rawvideo (native) -> vp9 (libvpx-vp9))\nPress [q] to stop, [?] for help\n[libvpx-vp9 @ 0000028cd9bfd200] v1.15.2-100-g40561f514\nOutput #0, webm, to 'C:\\Users\\Peter\\Desktop\\stuff\\MIUN\\quantitative_research\\video_compression\\compressed_videos\\HEVC_CLASS_B\\vp9\\12\\BQTerrace_1920x1080_60_vp9.webm':\n  Metadata:\n    encoder         : Lavf62.3.100\n  Stream #0:0: Video: vp9, yuv420p(tv, progressive), 1920x1080, q=2-31, 12000 kb/s, 60 fps, 1k tbn\n    Metadata:\n      encoder         : Lavc62.11.100 libvpx-vp9\n    Side data:\n      cpb: bitrate max/min/avg: 0/0/0 buffer size: 12000000 vbv_delay: N/A\nframe=    0 fps=0.0 q=0.0 size=       0KiB time=N/A bitrate=N/A speed=N/A elapsed=0:00:00.52    \nframe=    0 fps=0.0 q=0.0 size=       0KiB time=N/A bitrate=N/A speed=N/A elapsed=0:00:01.04    \nframe=    0 fps=0.0 q=0.0 size=       0KiB time=N/A bitrate=N/A speed=N/A elapsed=0:00:01.57    \nframe=    1 fps=0.5 q=12.0 size=       0KiB time=00:00:00.01 bitrate= 230.9kbits/s speed=0.00797x elapsed=0:00:02.09    \nframe=    3 fps=1.1 q=45.0 size=       0KiB time=00:00:00.03 bitrate= 115.4kbits/s speed=0.0121x elapsed=0:00:02.75    \nframe=    4 fps=1.2 q=39.0 size=       0KiB time=00:00:00.06 bitrate=  57.7kbits/s speed=0.0193x elapsed=0:00:03.45    \nframe=    6 fps=1.5 q=37.0 size=       0KiB time=00:00:00.10 bitrate=  38.5kbits/s speed=0.0245x elapsed=0:00:04.08    \nframe=    8 fps=1.5 q=35.0 size=       0KiB time=00:00:00.11 bitrate=  33.0kbits/s speed=0.0226x elapsed=0:00:05.16    \nframe=    9 fps=1.5 q=35.0 size=       0KiB time=00:00:00.15 bitrate=  25.7kbits/s speed=0.0245x elapsed=0:00:06.12    \nframe=   11 fps=1.6 q=36.0 size=       0KiB time=00:00:00.16 bitrate=  23.1kbits/s speed=0.024x elapsed=0:00:06.94    \nframe=   12 fps=1.5 q=37.0 size=       0KiB time=00:00:00.20 bitrate=  19.2kbits/s speed=0.025x elapsed=0:00:08.01    \nframe=   12 fps=1.4 q=37.0 size=       0KiB time=00:00:00.20 bitrate=  19.2kbits/s speed=0.0234x elapsed=0:00:08.55    \nframe=   14 fps=1.5 q=36.0 size=       0KiB time=00:00:00.23 bitrate=  16.5kbits/s speed=0.0258x elapsed=0:00:09.05    \nframe=   14 fps=1.5 q=36.0 size=       0KiB time=00:00:00.23 bitrate=  16.5kbits/s speed=0.0243x elapsed=0:00:09.61    \nframe=   15 fps=1.5 q=34.0 size=       0KiB time=00:00:00.25 bitrate=  15.4kbits/s speed=0.0247x elapsed=0:00:10.13    \nframe=   16 fps=1.5 q=36.0 size=       0KiB time=00:00:00.26 bitrate=  14.4kbits/s speed=0.0249x elapsed=0:00:10.72    \nframe=   16 fps=1.4 q=36.0 size=       0KiB time=00:00:00.26 bitrate=  14.4kbits/s speed=0.0237x elapsed=0:00:11.24    \nframe=   17 fps=1.4 q=36.0 size=       0KiB time=00:00:00.28 bitrate=  13.6kbits/s speed=0.0241x elapsed=0:00:11.77    \nframe=   17 fps=1.4 q=36.0 size=       0KiB time=00:00:00.28 bitrate=  13.6kbits/s speed=0.023x elapsed=0:00:12.30    \nframe=   17 fps=1.3 q=36.0 size=       0KiB time=00:00:00.28 bitrate=  13.6kbits/s speed=0.0221x elapsed=0:00:12.84    \nframe=   18 fps=1.3 q=36.0 size=       0KiB time=00:00:00.30 bitrate=  12.8kbits/s speed=0.0224x elapsed=0:00:13.37    \nframe=   18 fps=1.3 q=36.0 size=       0KiB time=00:00:00.30 bitrate=  12.8kbits/s speed=0.0216x elapsed=0:00:13.91    \nframe=   18 fps=1.2 q=36.0 size=       0KiB time=00:00:00.30 bitrate=  12.8kbits/s speed=0.0208x elapsed=0:00:14.43    \nframe=   19 fps=1.3 q=36.0 size=       0KiB time=00:00:00.31 bitrate=  12.2kbits/s speed=0.0212x elapsed=0:00:14.95    \nframe=   19 fps=1.2 q=36.0 size=       0KiB time=00:00:00.31 bitrate=  12.2kbits/s speed=0.0205x elapsed=0:00:15.48    \nframe=   20 fps=1.2 q=36.0 size=       0KiB time=00:00:00.33 bitrate=  11.5kbits/s speed=0.0208x elapsed=0:00:16.01    \nframe=   20 fps=1.2 q=36.0 size=       0KiB time=00:00:00.33 bitrate=  11.5kbits/s speed=0.0201x elapsed=0:00:16.54    \nframe=   20 fps=1.2 q=36.0 size=       0KiB time=00:00:00.33 bitrate=  11.5kbits/s speed=0.0195x elapsed=0:00:17.07    \nframe=   21 fps=1.2 q=35.0 size=       0KiB time=00:00:00.35 bitrate=  11.0kbits/s speed=0.0199x elapsed=0:00:17.58    \nframe=   21 fps=1.2 q=35.0 size=       0KiB time=00:00:00.35 bitrate=  11.0kbits/s speed=0.0193x elapsed=0:00:18.12    \nframe=   21 fps=1.1 q=35.0 size=       0KiB time=00:00:00.35 bitrate=  11.0kbits/s speed=0.0188x elapsed=0:00:18.65    \nframe=   22 fps=1.1 q=35.0 size=       0KiB time=00:00:00.36 bitrate=  10.5kbits/s speed=0.0191x elapsed=0:00:19.16    \nframe=   22 fps=1.1 q=35.0 size=       0KiB time=00:00:00.36 bitrate=  10.5kbits/s speed=0.0186x elapsed=0:00:19.69    \nframe=   22 fps=1.1 q=35.0 size=       0KiB time=00:00:00.36 bitrate=  10.5kbits/s speed=0.0181x elapsed=0:00:20.21    \nframe=   23 fps=1.1 q=35.0 size=       0KiB time=00:00:00.38 bitrate=  10.0kbits/s speed=0.0185x elapsed=0:00:20.73    \nframe=   24 fps=1.1 q=35.0 size=       0KiB time=00:00:00.40 bitrate=   9.6kbits/s speed=0.0188x elapsed=0:00:21.24    \nframe=   24 fps=1.1 q=35.0 size=       0KiB time=00:00:00.40 bitrate=   9.6kbits/s speed=0.0184x elapsed=0:00:21.75    \nframe=   24 fps=1.1 q=35.0 size=       0KiB time=00:00:00.40 bitrate=   9.6kbits/s speed=0.018x elapsed=0:00:22.28    \nframe=   24 fps=1.1 q=35.0 size=       0KiB time=00:00:00.40 bitrate=   9.6kbits/s speed=0.0175x elapsed=0:00:22.79    \nframe=   25 fps=1.1 q=23.0 size=       0KiB time=00:00:00.41 bitrate=   9.2kbits/s speed=0.0179x elapsed=0:00:23.33    \nframe=   25 fps=1.0 q=23.0 size=       0KiB time=00:00:00.41 bitrate=   9.2kbits/s speed=0.0175x elapsed=0:00:23.83    \nframe=   26 fps=1.1 q=36.0 size=       0KiB time=00:00:00.43 bitrate=   8.9kbits/s speed=0.0178x elapsed=0:00:24.35    \nframe=   26 fps=1.0 q=36.0 size=       0KiB time=00:00:00.43 bitrate=   8.9kbits/s speed=0.0174x elapsed=0:00:24.88    \nframe=   26 fps=1.0 q=36.0 size=       0KiB time=00:00:00.43 bitrate=   8.9kbits/s speed=0.0171x elapsed=0:00:25.40    \nframe=   27 fps=1.0 q=34.0 size=       0KiB time=00:00:00.45 bitrate=   8.6kbits/s speed=0.0174x elapsed=0:00:25.91    \nframe=   27 fps=1.0 q=34.0 size=       0KiB time=00:00:00.45 bitrate=   8.6kbits/s speed=0.017x elapsed=0:00:26.43    \nframe=   28 fps=1.0 q=36.0 size=       0KiB time=00:00:00.46 bitrate=   8.2kbits/s speed=0.0173x elapsed=0:00:26.95    \nframe=   28 fps=1.0 q=36.0 size=       0KiB time=00:00:00.46 bitrate=   8.2kbits/s speed=0.017x elapsed=0:00:27.47    \nframe=   29 fps=1.0 q=36.0 size=       0KiB time=00:00:00.48 bitrate=   8.0kbits/s speed=0.0173x elapsed=0:00:27.98    \nframe=   29 fps=1.0 q=36.0 size=       0KiB time=00:00:00.48 bitrate=   8.0kbits/s speed=0.017x elapsed=0:00:28.50    \nframe=   30 fps=1.0 q=36.0 size=       0KiB time=00:00:00.50 bitrate=   7.7kbits/s speed=0.0172x elapsed=0:00:29.01    \nframe=   30 fps=1.0 q=36.0 size=       0KiB time=00:00:00.50 bitrate=   7.7kbits/s speed=0.0169x elapsed=0:00:29.52    \nframe=   31 fps=1.0 q=35.0 size=       0KiB time=00:00:00.51 bitrate=   7.4kbits/s speed=0.0172x elapsed=0:00:30.05    \nframe=   31 fps=1.0 q=35.0 size=       0KiB time=00:00:00.51 bitrate=   7.4kbits/s speed=0.0169x elapsed=0:00:30.57    \nframe=   32 fps=1.0 q=36.0 size=       0KiB time=00:00:00.53 bitrate=   7.2kbits/s speed=0.0171x elapsed=0:00:31.11    \nframe=   32 fps=1.0 q=36.0 size=       0KiB time=00:00:00.53 bitrate=   7.2kbits/s speed=0.0169x elapsed=0:00:31.63    \nframe=   32 fps=1.0 q=36.0 size=       0KiB time=00:00:00.53 bitrate=   7.2kbits/s speed=0.0166x elapsed=0:00:32.17    \nframe=   33 fps=1.0 q=36.0 size=       0KiB time=00:00:00.55 bitrate=   7.0kbits/s speed=0.0168x elapsed=0:00:32.70    \nframe=   33 fps=1.0 q=36.0 size=       0KiB time=00:00:00.55 bitrate=   7.0kbits/s speed=0.0165x elapsed=0:00:33.23    \nframe=   34 fps=1.0 q=35.0 size=       0KiB time=00:00:00.56 bitrate=   6.8kbits/s speed=0.0168x elapsed=0:00:33.75    \nframe=   35 fps=1.0 q=35.0 size=       0KiB time=00:00:00.58 bitrate=   6.6kbits/s speed=0.017x elapsed=0:00:34.26    \nframe=   35 fps=1.0 q=35.0 size=       0KiB time=00:00:00.58 bitrate=   6.6kbits/s speed=0.0168x elapsed=0:00:34.78    \nframe=   36 fps=1.0 q=36.0 size=       0KiB time=00:00:00.60 bitrate=   6.4kbits/s speed=0.017x elapsed=0:00:35.29    \nframe=   36 fps=1.0 q=36.0 size=       0KiB time=00:00:00.60 bitrate=   6.4kbits/s speed=0.0168x elapsed=0:00:35.80    \nframe=   36 fps=1.0 q=36.0 size=       0KiB time=00:00:00.60 bitrate=   6.4kbits/s speed=0.0165x elapsed=0:00:36.34    \nframe=   36 fps=1.0 q=36.0 size=       0KiB time=00:00:00.60 bitrate=   6.4kbits/s speed=0.0163x elapsed=0:00:36.86    \nframe=   36 fps=1.0 q=36.0 size=       0KiB time=00:00:00.60 bitrate=   6.4kbits/s speed=0.016x elapsed=0:00:37.39    \nframe=   37 fps=1.0 q=23.0 size=       0KiB time=00:00:00.61 bitrate=   6.2kbits/s speed=0.0163x elapsed=0:00:37.91    \nframe=   38 fps=1.0 q=36.0 size=       0KiB time=00:00:00.63 bitrate=   6.1kbits/s speed=0.0165x elapsed=0:00:38.45    \nframe=   38 fps=1.0 q=36.0 size=       0KiB time=00:00:00.63 bitrate=   6.1kbits/s speed=0.0162x elapsed=0:00:38.97    \nframe=   39 fps=1.0 q=35.0 size=       0KiB time=00:00:00.65 bitrate=   5.9kbits/s speed=0.0165x elapsed=0:00:39.50    \nframe=   39 fps=1.0 q=35.0 size=       0KiB time=00:00:00.65 bitrate=   5.9kbits/s speed=0.0162x elapsed=0:00:40.02    \nframe=   39 fps=1.0 q=35.0 size=       0KiB time=00:00:00.65 bitrate=   5.9kbits/s speed=0.016x elapsed=0:00:40.56    \nframe=   40 fps=1.0 q=36.0 size=       0KiB time=00:00:00.66 bitrate=   5.8kbits/s speed=0.0162x elapsed=0:00:41.08    \nframe=   40 fps=1.0 q=36.0 size=       0KiB time=00:00:00.66 bitrate=   5.8kbits/s speed=0.016x elapsed=0:00:41.61    \nframe=   41 fps=1.0 q=35.0 size=       0KiB time=00:00:00.68 bitrate=   5.6kbits/s speed=0.0162x elapsed=0:00:42.15    \nframe=   41 fps=1.0 q=35.0 size=       0KiB time=00:00:00.68 bitrate=   5.6kbits/s speed=0.016x elapsed=0:00:42.69    \nframe=   42 fps=1.0 q=35.0 size=       0KiB time=00:00:00.70 bitrate=   5.5kbits/s speed=0.0162x elapsed=0:00:43.21    \nframe=   42 fps=1.0 q=35.0 size=       0KiB time=00:00:00.70 bitrate=   5.5kbits/s speed=0.016x elapsed=0:00:43.73    \nframe=   42 fps=0.9 q=35.0 size=       0KiB time=00:00:00.70 bitrate=   5.5kbits/s speed=0.0158x elapsed=0:00:44.27    \nframe=   43 fps=1.0 q=35.0 size=       0KiB time=00:00:00.71 bitrate=   5.4kbits/s speed=0.016x elapsed=0:00:44.80    \nframe=   43 fps=0.9 q=35.0 size=       0KiB time=00:00:00.71 bitrate=   5.4kbits/s speed=0.0158x elapsed=0:00:45.34    \nframe=   44 fps=1.0 q=35.0 size=       0KiB time=00:00:00.73 bitrate=   5.2kbits/s speed=0.016x elapsed=0:00:45.87    \nframe=   44 fps=0.9 q=35.0 size=       0KiB time=00:00:00.73 bitrate=   5.2kbits/s speed=0.0158x elapsed=0:00:46.42    \nframe=   45 fps=1.0 q=36.0 size=       0KiB time=00:00:00.75 bitrate=   5.1kbits/s speed=0.016x elapsed=0:00:46.94    \nframe=   45 fps=0.9 q=36.0 size=       0KiB time=00:00:00.75 bitrate=   5.1kbits/s speed=0.0158x elapsed=0:00:47.46    \nframe=   45 fps=0.9 q=36.0 size=       0KiB time=00:00:00.75 bitrate=   5.1kbits/s speed=0.0156x elapsed=0:00:47.98    \nframe=   46 fps=0.9 q=36.0 size=       0KiB time=00:00:00.76 bitrate=   5.0kbits/s speed=0.0158x elapsed=0:00:48.52    \nframe=   46 fps=0.9 q=36.0 size=       0KiB time=00:00:00.76 bitrate=   5.0kbits/s speed=0.0156x elapsed=0:00:49.05    \nframe=   47 fps=0.9 q=37.0 size=       0KiB time=00:00:00.78 bitrate=   4.9kbits/s speed=0.0158x elapsed=0:00:49.58    \nframe=   47 fps=0.9 q=37.0 size=       0KiB time=00:00:00.78 bitrate=   4.9kbits/s speed=0.0156x elapsed=0:00:50.10    \nframe=   47 fps=0.9 q=37.0 size=       0KiB time=00:00:00.78 bitrate=   4.9kbits/s speed=0.0155x elapsed=0:00:50.63    \nframe=   48 fps=0.9 q=37.0 size=       0KiB time=00:00:00.80 bitrate=   4.8kbits/s speed=0.0156x elapsed=0:00:51.17    \nframe=   48 fps=0.9 q=37.0 size=       0KiB time=00:00:00.80 bitrate=   4.8kbits/s speed=0.0155x elapsed=0:00:51.71    \nframe=   48 fps=0.9 q=37.0 size=       0KiB time=00:00:00.80 bitrate=   4.8kbits/s speed=0.0153x elapsed=0:00:52.22    \nframe=   48 fps=0.9 q=37.0 size=       0KiB time=00:00:00.80 bitrate=   4.8kbits/s speed=0.0152x elapsed=0:00:52.76    \nframe=   48 fps=0.9 q=37.0 size=       0KiB time=00:00:00.80 bitrate=   4.8kbits/s speed=0.015x elapsed=0:00:53.29    \nframe=   49 fps=0.9 q=22.0 size=       0KiB time=00:00:00.81 bitrate=   4.7kbits/s speed=0.0152x elapsed=0:00:53.81    \nframe=   50 fps=0.9 q=37.0 size=       0KiB time=00:00:00.83 bitrate=   4.6kbits/s speed=0.0153x elapsed=0:00:54.34    \nframe=   50 fps=0.9 q=37.0 size=       0KiB time=00:00:00.83 bitrate=   4.6kbits/s speed=0.0152x elapsed=0:00:54.86    \nframe=   50 fps=0.9 q=37.0 size=       0KiB time=00:00:00.83 bitrate=   4.6kbits/s speed=0.015x elapsed=0:00:55.39    \nframe=   51 fps=0.9 q=36.0 size=       0KiB time=00:00:00.85 bitrate=   4.5kbits/s speed=0.0152x elapsed=0:00:55.91    \nframe=   51 fps=0.9 q=36.0 size=       0KiB time=00:00:00.85 bitrate=   4.5kbits/s speed=0.0151x elapsed=0:00:56.44    \nframe=   52 fps=0.9 q=35.0 size=       0KiB time=00:00:00.86 bitrate=   4.4kbits/s speed=0.0152x elapsed=0:00:56.98    \nframe=   52 fps=0.9 q=35.0 size=       0KiB time=00:00:00.86 bitrate=   4.4kbits/s speed=0.0151x elapsed=0:00:57.54    \nframe=   52 fps=0.9 q=35.0 size=       0KiB time=00:00:00.86 bitrate=   4.4kbits/s speed=0.0149x elapsed=0:00:58.09    \nframe=   53 fps=0.9 q=35.0 size=       0KiB time=00:00:00.88 bitrate=   4.4kbits/s speed=0.0151x elapsed=0:00:58.62    \nframe=   54 fps=0.9 q=36.0 size=       0KiB time=00:00:00.90 bitrate=   4.3kbits/s speed=0.0152x elapsed=0:00:59.13    \nframe=   54 fps=0.9 q=36.0 size=       0KiB time=00:00:00.90 bitrate=   4.3kbits/s speed=0.0151x elapsed=0:00:59.65    \nframe=   55 fps=0.9 q=35.0 size=       0KiB time=00:00:00.91 bitrate=   4.2kbits/s speed=0.0152x elapsed=0:01:00.18    \nframe=   55 fps=0.9 q=35.0 size=       0KiB time=00:00:00.91 bitrate=   4.2kbits/s speed=0.0151x elapsed=0:01:00.71    \nframe=   56 fps=0.9 q=35.0 size=       0KiB time=00:00:00.93 bitrate=   4.1kbits/s speed=0.0152x elapsed=0:01:01.23    \nframe=   56 fps=0.9 q=35.0 size=       0KiB time=00:00:00.93 bitrate=   4.1kbits/s speed=0.0151x elapsed=0:01:01.78    \nframe=   56 fps=0.9 q=35.0 size=       0KiB time=00:00:00.93 bitrate=   4.1kbits/s speed=0.015x elapsed=0:01:02.32    \nframe=   57 fps=0.9 q=36.0 size=       0KiB time=00:00:00.95 bitrate=   4.1kbits/s speed=0.0151x elapsed=0:01:02.85    \nframe=   57 fps=0.9 q=36.0 size=       0KiB time=00:00:00.95 bitrate=   4.1kbits/s speed=0.015x elapsed=0:01:03.38    \nframe=   58 fps=0.9 q=36.0 size=       0KiB time=00:00:00.96 bitrate=   4.0kbits/s speed=0.0151x elapsed=0:01:03.90    \nframe=   58 fps=0.9 q=36.0 size=       0KiB time=00:00:00.96 bitrate=   4.0kbits/s speed=0.015x elapsed=0:01:04.43    \nframe=   59 fps=0.9 q=35.0 size=       0KiB time=00:00:00.98 bitrate=   3.9kbits/s speed=0.0151x elapsed=0:01:04.95    \nframe=   59 fps=0.9 q=35.0 size=       0KiB time=00:00:00.98 bitrate=   3.9kbits/s speed=0.015x elapsed=0:01:05.48    \nframe=   60 fps=0.9 q=36.0 size=       0KiB time=00:00:01.00 bitrate=   3.8kbits/s speed=0.0151x elapsed=0:01:06.03    \nframe=   60 fps=0.9 q=36.0 size=       0KiB time=00:00:01.00 bitrate=   3.8kbits/s speed=0.015x elapsed=0:01:06.55    \nframe=   60 fps=0.9 q=36.0 size=       0KiB time=00:00:01.00 bitrate=   3.8kbits/s speed=0.0149x elapsed=0:01:07.07    \nframe=   60 fps=0.9 q=36.0 size=       0KiB time=00:00:01.00 bitrate=   3.8kbits/s speed=0.0148x elapsed=0:01:07.61    \nframe=   60 fps=0.9 q=36.0 size=       0KiB time=00:00:01.00 bitrate=   3.8kbits/s speed=0.0147x elapsed=0:01:08.14    \nframe=   61 fps=0.9 q=22.0 size=       0KiB time=00:00:01.01 bitrate=   3.8kbits/s speed=0.0148x elapsed=0:01:08.67    \nframe=   61 fps=0.9 q=22.0 size=       0KiB time=00:00:01.01 bitrate=   3.8kbits/s speed=0.0147x elapsed=0:01:09.22    \nframe=   62 fps=0.9 q=36.0 size=       0KiB time=00:00:01.03 bitrate=   3.7kbits/s speed=0.0148x elapsed=0:01:09.75    \nframe=   62 fps=0.9 q=36.0 size=       0KiB time=00:00:01.03 bitrate=   3.7kbits/s speed=0.0147x elapsed=0:01:10.27    \nframe=   63 fps=0.9 q=33.0 size=       0KiB time=00:00:01.05 bitrate=   3.7kbits/s speed=0.0148x elapsed=0:01:10.80    \nframe=   63 fps=0.9 q=33.0 size=       0KiB time=00:00:01.05 bitrate=   3.7kbits/s speed=0.0147x elapsed=0:01:11.32    \nframe=   64 fps=0.9 q=35.0 size=       0KiB time=00:00:01.06 bitrate=   3.6kbits/s speed=0.0148x elapsed=0:01:11.84    \nframe=   64 fps=0.9 q=35.0 size=       0KiB time=00:00:01.06 bitrate=   3.6kbits/s speed=0.0147x elapsed=0:01:12.36    \nframe=   65 fps=0.9 q=35.0 size=       0KiB time=00:00:01.08 bitrate=   3.6kbits/s speed=0.0149x elapsed=0:01:12.87    \nframe=   65 fps=0.9 q=35.0 size=       0KiB time=00:00:01.08 bitrate=   3.6kbits/s speed=0.0148x elapsed=0:01:13.40    \nframe=   66 fps=0.9 q=35.0 size=       0KiB time=00:00:01.10 bitrate=   3.5kbits/s speed=0.0149x elapsed=0:01:13.93    \nframe=   67 fps=0.9 q=35.0 size=       0KiB time=00:00:01.11 bitrate=   3.4kbits/s speed=0.015x elapsed=0:01:14.56    \nframe=   68 fps=0.9 q=35.0 size=       0KiB time=00:00:01.13 bitrate=   3.4kbits/s speed=0.0151x elapsed=0:01:15.16    \nframe=   69 fps=0.9 q=35.0 size=       0KiB time=00:00:01.15 bitrate=   3.3kbits/s speed=0.0152x elapsed=0:01:15.74    \nframe=   69 fps=0.9 q=35.0 size=       0KiB time=00:00:01.15 bitrate=   3.3kbits/s speed=0.0151x elapsed=0:01:16.38    \nframe=   70 fps=0.9 q=35.0 size=       0KiB time=00:00:01.16 bitrate=   3.3kbits/s speed=0.0151x elapsed=0:01:17.00    \nframe=   71 fps=0.9 q=35.0 size=       0KiB time=00:00:01.18 bitrate=   3.3kbits/s speed=0.0153x elapsed=0:01:17.55    \nframe=   71 fps=0.9 q=35.0 size=       0KiB time=00:00:01.18 bitrate=   3.3kbits/s speed=0.0151x elapsed=0:01:18.19    \nframe=   72 fps=0.9 q=36.0 size=       0KiB time=00:00:01.20 bitrate=   3.2kbits/s speed=0.0152x elapsed=0:01:18.73    \nframe=   72 fps=0.9 q=36.0 size=       0KiB time=00:00:01.20 bitrate=   3.2kbits/s speed=0.0151x elapsed=0:01:19.27    \nframe=   72 fps=0.9 q=36.0 size=       0KiB time=00:00:01.20 bitrate=   3.2kbits/s speed=0.015x elapsed=0:01:19.80    \nframe=   73 fps=0.9 q=21.0 size=       0KiB time=00:00:01.21 bitrate=   3.2kbits/s speed=0.0151x elapsed=0:01:20.33    \nframe=   74 fps=0.9 q=36.0 size=       0KiB time=00:00:01.23 bitrate=   3.1kbits/s speed=0.0152x elapsed=0:01:20.88    \nframe=   74 fps=0.9 q=36.0 size=       0KiB time=00:00:01.23 bitrate=   3.1kbits/s speed=0.0151x elapsed=0:01:21.45    \nframe=   75 fps=0.9 q=33.0 size=       0KiB time=00:00:01.25 bitrate=   3.1kbits/s speed=0.0152x elapsed=0:01:21.98    \nframe=   76 fps=0.9 q=36.0 size=       0KiB time=00:00:01.26 bitrate=   3.0kbits/s speed=0.0154x elapsed=0:01:22.50    \nframe=   77 fps=0.9 q=35.0 size=       0KiB time=00:00:01.28 bitrate=   3.0kbits/s speed=0.0154x elapsed=0:01:23.09    \nframe=   78 fps=0.9 q=36.0 size=       0KiB time=00:00:01.30 bitrate=   3.0kbits/s speed=0.0155x elapsed=0:01:23.82    \nframe=   78 fps=0.9 q=36.0 size=       0KiB time=00:00:01.30 bitrate=   3.0kbits/s speed=0.0154x elapsed=0:01:24.34    \nframe=   79 fps=0.9 q=36.0 size=       0KiB time=00:00:01.31 bitrate=   2.9kbits/s speed=0.0155x elapsed=0:01:24.85    \nframe=   80 fps=0.9 q=37.0 size=       0KiB time=00:00:01.33 bitrate=   2.9kbits/s speed=0.0156x elapsed=0:01:25.37    \nframe=   81 fps=0.9 q=36.0 size=       0KiB time=00:00:01.35 bitrate=   2.9kbits/s speed=0.0157x elapsed=0:01:25.89    \nframe=   82 fps=0.9 q=36.0 size=       0KiB time=00:00:01.36 bitrate=   2.8kbits/s speed=0.0158x elapsed=0:01:26.40    \nframe=   83 fps=1.0 q=36.0 size=       0KiB time=00:00:01.38 bitrate=   2.8kbits/s speed=0.0159x elapsed=0:01:26.91    \nframe=   83 fps=0.9 q=36.0 size=       0KiB time=00:00:01.38 bitrate=   2.8kbits/s speed=0.0158x elapsed=0:01:27.44    \nframe=   84 fps=1.0 q=36.0 size=       0KiB time=00:00:01.40 bitrate=   2.7kbits/s speed=0.0159x elapsed=0:01:27.94    \nframe=   84 fps=0.9 q=36.0 size=       0KiB time=00:00:01.40 bitrate=   2.7kbits/s speed=0.0158x elapsed=0:01:28.46    \nframe=   84 fps=0.9 q=36.0 size=       0KiB time=00:00:01.40 bitrate=   2.7kbits/s speed=0.0157x elapsed=0:01:28.98    \nframe=   84 fps=0.9 q=36.0 size=       0KiB time=00:00:01.40 bitrate=   2.7kbits/s speed=0.0156x elapsed=0:01:29.50    \nframe=   85 fps=0.9 q=27.0 size=       0KiB time=00:00:01.41 bitrate=   2.7kbits/s speed=0.0157x elapsed=0:01:30.01    \nframe=   86 fps=0.9 q=33.0 size=       0KiB time=00:00:01.43 bitrate=   2.7kbits/s speed=0.0158x elapsed=0:01:30.53    \nframe=   86 fps=0.9 q=33.0 size=       0KiB time=00:00:01.43 bitrate=   2.7kbits/s speed=0.0157x elapsed=0:01:31.04    \nframe=   87 fps=1.0 q=33.0 size=       0KiB time=00:00:01.45 bitrate=   2.7kbits/s speed=0.0158x elapsed=0:01:31.55    \nframe=   88 fps=1.0 q=34.0 size=       0KiB time=00:00:01.46 bitrate=   2.6kbits/s speed=0.0159x elapsed=0:01:32.07    \nframe=   89 fps=1.0 q=34.0 size=       0KiB time=00:00:01.48 bitrate=   2.6kbits/s speed=0.016x elapsed=0:01:32.60    \nframe=   90 fps=1.0 q=34.0 size=       0KiB time=00:00:01.50 bitrate=   2.6kbits/s speed=0.0161x elapsed=0:01:33.10    \nframe=   90 fps=1.0 q=34.0 size=       0KiB time=00:00:01.50 bitrate=   2.6kbits/s speed=0.016x elapsed=0:01:33.62    \nframe=   91 fps=1.0 q=34.0 size=       0KiB time=00:00:01.51 bitrate=   2.5kbits/s speed=0.0161x elapsed=0:01:34.14    \nframe=   91 fps=1.0 q=34.0 size=       0KiB time=00:00:01.51 bitrate=   2.5kbits/s speed=0.016x elapsed=0:01:34.66    \nframe=   92 fps=1.0 q=35.0 size=       0KiB time=00:00:01.53 bitrate=   2.5kbits/s speed=0.0161x elapsed=0:01:35.16    \nframe=   92 fps=1.0 q=35.0 size=       0KiB time=00:00:01.53 bitrate=   2.5kbits/s speed=0.016x elapsed=0:01:35.68    \nframe=   93 fps=1.0 q=35.0 size=       0KiB time=00:00:01.55 bitrate=   2.5kbits/s speed=0.0161x elapsed=0:01:36.20    \nframe=   94 fps=1.0 q=36.0 size=       0KiB time=00:00:01.56 bitrate=   2.5kbits/s speed=0.0162x elapsed=0:01:36.72    \nframe=   94 fps=1.0 q=36.0 size=       0KiB time=00:00:01.56 bitrate=   2.5kbits/s speed=0.0161x elapsed=0:01:37.22    \nframe=   95 fps=1.0 q=35.0 size=       0KiB time=00:00:01.58 bitrate=   2.4kbits/s speed=0.0162x elapsed=0:01:37.75    \nframe=   96 fps=1.0 q=35.0 size=       0KiB time=00:00:01.60 bitrate=   2.4kbits/s speed=0.0163x elapsed=0:01:38.26    \nframe=   96 fps=1.0 q=35.0 size=       0KiB time=00:00:01.60 bitrate=   2.4kbits/s speed=0.0162x elapsed=0:01:38.78    \nframe=   96 fps=1.0 q=35.0 size=       0KiB time=00:00:01.60 bitrate=   2.4kbits/s speed=0.0161x elapsed=0:01:39.30    \nframe=   97 fps=1.0 q=27.0 size=       0KiB time=00:00:01.61 bitrate=   2.4kbits/s speed=0.0162x elapsed=0:01:39.81    \nframe=   98 fps=1.0 q=37.0 size=       0KiB time=00:00:01.63 bitrate=   2.4kbits/s speed=0.0163x elapsed=0:01:40.33    \nframe=   98 fps=1.0 q=37.0 size=       0KiB time=00:00:01.63 bitrate=   2.4kbits/s speed=0.0162x elapsed=0:01:40.84    \nframe=   99 fps=1.0 q=35.0 size=       0KiB time=00:00:01.65 bitrate=   2.3kbits/s speed=0.0163x elapsed=0:01:41.36    \nframe=   99 fps=1.0 q=35.0 size=       0KiB time=00:00:01.65 bitrate=   2.3kbits/s speed=0.0162x elapsed=0:01:41.88    \nframe=   99 fps=1.0 q=35.0 size=       0KiB time=00:00:01.65 bitrate=   2.3kbits/s speed=0.0161x elapsed=0:01:42.39    \nframe=  100 fps=1.0 q=35.0 size=       0KiB time=00:00:01.66 bitrate=   2.3kbits/s speed=0.0162x elapsed=0:01:42.90    \nframe=  100 fps=1.0 q=35.0 size=       0KiB time=00:00:01.66 bitrate=   2.3kbits/s speed=0.0161x elapsed=0:01:43.41    \nframe=  101 fps=1.0 q=36.0 size=       0KiB time=00:00:01.68 bitrate=   2.3kbits/s speed=0.0162x elapsed=0:01:43.93    \nframe=  102 fps=1.0 q=36.0 size=       0KiB time=00:00:01.70 bitrate=   2.3kbits/s speed=0.0163x elapsed=0:01:44.45    \nframe=  102 fps=1.0 q=36.0 size=       0KiB time=00:00:01.70 bitrate=   2.3kbits/s speed=0.0162x elapsed=0:01:44.96    \nframe=  102 fps=1.0 q=36.0 size=       0KiB time=00:00:01.70 bitrate=   2.3kbits/s speed=0.0161x elapsed=0:01:45.48    \nframe=  103 fps=1.0 q=28.0 size=       0KiB time=00:00:01.71 bitrate=   2.2kbits/s speed=0.0162x elapsed=0:01:46.00    \nframe=  103 fps=1.0 q=28.0 size=       0KiB time=00:00:01.71 bitrate=   2.2kbits/s speed=0.0161x elapsed=0:01:46.51    \nframe=  104 fps=1.0 q=36.0 size=       0KiB time=00:00:01.73 bitrate=   2.2kbits/s speed=0.0162x elapsed=0:01:47.03    \nframe=  104 fps=1.0 q=36.0 size=       0KiB time=00:00:01.73 bitrate=   2.2kbits/s speed=0.0161x elapsed=0:01:47.54    \nframe=  105 fps=1.0 q=35.0 size=       0KiB time=00:00:01.75 bitrate=   2.2kbits/s speed=0.0162x elapsed=0:01:48.06    \nframe=  107 fps=1.0 q=37.0 size=       0KiB time=00:00:01.78 bitrate=   2.2kbits/s speed=0.0164x elapsed=0:01:48.58    \nframe=  107 fps=1.0 q=37.0 size=       0KiB time=00:00:01.78 bitrate=   2.2kbits/s speed=0.0163x elapsed=0:01:49.09    \nframe=  108 fps=1.0 q=37.0 size=       0KiB time=00:00:01.80 bitrate=   2.1kbits/s speed=0.0164x elapsed=0:01:49.60    \nframe=  108 fps=1.0 q=37.0 size=       0KiB time=00:00:01.80 bitrate=   2.1kbits/s speed=0.0163x elapsed=0:01:50.12    \nframe=  109 fps=1.0 q=28.0 size=       0KiB time=00:00:01.81 bitrate=   2.1kbits/s speed=0.0164x elapsed=0:01:50.63    \nframe=  110 fps=1.0 q=36.0 size=       0KiB time=00:00:01.83 bitrate=   2.1kbits/s speed=0.0165x elapsed=0:01:51.15    \nframe=  111 fps=1.0 q=34.0 size=       0KiB time=00:00:01.85 bitrate=   2.1kbits/s speed=0.0166x elapsed=0:01:51.67    \nframe=  112 fps=1.0 q=34.0 size=       0KiB time=00:00:01.86 bitrate=   2.1kbits/s speed=0.0166x elapsed=0:01:52.19    \nframe=  112 fps=1.0 q=34.0 size=       0KiB time=00:00:01.86 bitrate=   2.1kbits/s speed=0.0166x elapsed=0:01:52.69    \nframe=  113 fps=1.0 q=34.0 size=       0KiB time=00:00:01.88 bitrate=   2.0kbits/s speed=0.0166x elapsed=0:01:53.22    \nframe=  114 fps=1.0 q=34.0 size=       0KiB time=00:00:01.90 bitrate=   2.0kbits/s speed=0.0167x elapsed=0:01:53.73    \nframe=  114 fps=1.0 q=34.0 size=       0KiB time=00:00:01.90 bitrate=   2.0kbits/s speed=0.0166x elapsed=0:01:54.24    \nframe=  116 fps=1.0 q=34.0 size=       0KiB time=00:00:01.93 bitrate=   2.0kbits/s speed=0.0168x elapsed=0:01:54.76    \nframe=  116 fps=1.0 q=34.0 size=       0KiB time=00:00:01.93 bitrate=   2.0kbits/s speed=0.0168x elapsed=0:01:55.28    \nframe=  118 fps=1.0 q=33.0 size=       0KiB time=00:00:01.96 bitrate=   2.0kbits/s speed=0.017x elapsed=0:01:55.79    \nframe=  119 fps=1.0 q=34.0 size=       0KiB time=00:00:01.98 bitrate=   1.9kbits/s speed=0.0171x elapsed=0:01:56.31    \nframe=  120 fps=1.0 q=34.0 size=       0KiB time=00:00:02.00 bitrate=   1.9kbits/s speed=0.0171x elapsed=0:01:56.83    \nframe=  120 fps=1.0 q=34.0 size=       0KiB time=00:00:02.00 bitrate=   1.9kbits/s speed=0.017x elapsed=0:01:57.34    \nframe=  120 fps=1.0 q=34.0 size=       0KiB time=00:00:02.00 bitrate=   1.9kbits/s speed=0.017x elapsed=0:01:57.85    \nframe=  121 fps=1.0 q=25.0 size=       0KiB time=00:00:02.01 bitrate=   1.9kbits/s speed=0.017x elapsed=0:01:58.37    \nframe=  121 fps=1.0 q=25.0 size=       0KiB time=00:00:02.01 bitrate=   1.9kbits/s speed=0.017x elapsed=0:01:58.88    \nframe=  122 fps=1.0 q=35.0 size=       0KiB time=00:00:02.03 bitrate=   1.9kbits/s speed=0.017x elapsed=0:01:59.41    \nframe=  123 fps=1.0 q=33.0 size=       0KiB time=00:00:02.05 bitrate=   1.9kbits/s speed=0.0171x elapsed=0:01:59.92    \nframe=  123 fps=1.0 q=33.0 size=       0KiB time=00:00:02.05 bitrate=   1.9kbits/s speed=0.017x elapsed=0:02:00.44    \nframe=  124 fps=1.0 q=34.0 size=       0KiB time=00:00:02.06 bitrate=   1.9kbits/s speed=0.0171x elapsed=0:02:00.95    \nframe=  124 fps=1.0 q=34.0 size=       0KiB time=00:00:02.06 bitrate=   1.9kbits/s speed=0.017x elapsed=0:02:01.46    \nframe=  125 fps=1.0 q=34.0 size=       0KiB time=00:00:02.08 bitrate=   1.8kbits/s speed=0.0171x elapsed=0:02:01.97    \nframe=  126 fps=1.0 q=34.0 size=       0KiB time=00:00:02.10 bitrate=   1.8kbits/s speed=0.0171x elapsed=0:02:02.50    \nframe=  126 fps=1.0 q=34.0 size=       0KiB time=00:00:02.10 bitrate=   1.8kbits/s speed=0.0171x elapsed=0:02:03.03    \nframe=  127 fps=1.0 q=34.0 size=       0KiB time=00:00:02.11 bitrate=   1.8kbits/s speed=0.0171x elapsed=0:02:03.56    \nframe=  128 fps=1.0 q=34.0 size=       0KiB time=00:00:02.13 bitrate=   1.8kbits/s speed=0.0172x elapsed=0:02:04.08    \nframe=  128 fps=1.0 q=34.0 size=       0KiB time=00:00:02.13 bitrate=   1.8kbits/s speed=0.0171x elapsed=0:02:04.61    \nframe=  128 fps=1.0 q=34.0 size=       0KiB time=00:00:02.13 bitrate=   1.8kbits/s speed=0.017x elapsed=0:02:05.14    \nframe=  129 fps=1.0 q=25.0 size=       0KiB time=00:00:02.15 bitrate=   1.8kbits/s speed=0.0171x elapsed=0:02:05.65    \nframe=  129 fps=1.0 q=25.0 size=       0KiB time=00:00:02.15 bitrate=   1.8kbits/s speed=0.017x elapsed=0:02:06.17    \nframe=  130 fps=1.0 q=32.0 size=    3584KiB time=00:00:02.16 bitrate=13550.8kbits/s speed=0.0171x elapsed=0:02:06.69    \nframe=  130 fps=1.0 q=32.0 size=    3584KiB time=00:00:02.16 bitrate=13550.8kbits/s speed=0.017x elapsed=0:02:07.22    \nframe=  131 fps=1.0 q=33.0 size=    3584KiB time=00:00:02.18 bitrate=13447.4kbits/s speed=0.0171x elapsed=0:02:07.72    \nframe=  131 fps=1.0 q=33.0 size=    3584KiB time=00:00:02.18 bitrate=13447.4kbits/s speed=0.017x elapsed=0:02:08.24    \nframe=  132 fps=1.0 q=35.0 size=    3584KiB time=00:00:02.20 bitrate=13345.5kbits/s speed=0.0171x elapsed=0:02:08.76    \nframe=  132 fps=1.0 q=35.0 size=    3584KiB time=00:00:02.20 bitrate=13345.5kbits/s speed=0.017x elapsed=0:02:09.28    \nframe=  133 fps=1.0 q=35.0 size=    3584KiB time=00:00:02.21 bitrate=13245.2kbits/s speed=0.0171x elapsed=0:02:09.79    \nframe=  134 fps=1.0 q=34.0 size=    3584KiB time=00:00:02.23 bitrate=13146.3kbits/s speed=0.0171x elapsed=0:02:10.31    \nframe=  134 fps=1.0 q=34.0 size=    3584KiB time=00:00:02.23 bitrate=13146.3kbits/s speed=0.0171x elapsed=0:02:10.83    \nframe=  135 fps=1.0 q=34.0 size=    3584KiB time=00:00:02.25 bitrate=13048.9kbits/s speed=0.0171x elapsed=0:02:11.36    \nframe=  135 fps=1.0 q=34.0 size=    3584KiB time=00:00:02.25 bitrate=13048.9kbits/s speed=0.0171x elapsed=0:02:11.88    \nframe=  136 fps=1.0 q=33.0 size=    3584KiB time=00:00:02.26 bitrate=12953.0kbits/s speed=0.0171x elapsed=0:02:12.40    \nframe=  137 fps=1.0 q=33.0 size=    3584KiB time=00:00:02.28 bitrate=12858.5kbits/s speed=0.0172x elapsed=0:02:12.93    \nframe=  137 fps=1.0 q=33.0 size=    3584KiB time=00:00:02.28 bitrate=12858.5kbits/s speed=0.0171x elapsed=0:02:13.45    \nframe=  138 fps=1.0 q=33.0 size=    3584KiB time=00:00:02.30 bitrate=12765.3kbits/s speed=0.0172x elapsed=0:02:13.97    \nframe=  138 fps=1.0 q=33.0 size=    3584KiB time=00:00:02.30 bitrate=12765.3kbits/s speed=0.0171x elapsed=0:02:14.49    \nframe=  139 fps=1.0 q=33.0 size=    3584KiB time=00:00:02.31 bitrate=12673.4kbits/s speed=0.0172x elapsed=0:02:15.01    \nframe=  139 fps=1.0 q=33.0 size=    3584KiB time=00:00:02.31 bitrate=12673.4kbits/s speed=0.0171x elapsed=0:02:15.54    \nframe=  139 fps=1.0 q=33.0 size=    3584KiB time=00:00:02.31 bitrate=12673.4kbits/s speed=0.017x elapsed=0:02:16.07    \nframe=  139 fps=1.0 q=33.0 size=    3584KiB time=00:00:02.31 bitrate=12673.4kbits/s speed=0.017x elapsed=0:02:16.59    \nframe=  141 fps=1.0 q=38.0 size=    3584KiB time=00:00:02.33 bitrate=12582.9kbits/s speed=0.017x elapsed=0:02:17.10    \nframe=  141 fps=1.0 q=38.0 size=    3584KiB time=00:00:02.35 bitrate=12493.7kbits/s speed=0.0171x elapsed=0:02:17.62    \nframe=  142 fps=1.0 q=33.0 size=    3584KiB time=00:00:02.36 bitrate=12405.7kbits/s speed=0.0171x elapsed=0:02:18.14    \nframe=  142 fps=1.0 q=33.0 size=    3584KiB time=00:00:02.36 bitrate=12405.7kbits/s speed=0.0171x elapsed=0:02:18.65    \nframe=  143 fps=1.0 q=34.0 size=    3584KiB time=00:00:02.38 bitrate=12318.9kbits/s speed=0.0171x elapsed=0:02:19.19    \nframe=  144 fps=1.0 q=34.0 size=    3584KiB time=00:00:02.40 bitrate=12233.4kbits/s speed=0.0172x elapsed=0:02:19.70    \nframe=  144 fps=1.0 q=34.0 size=    3584KiB time=00:00:02.40 bitrate=12233.4kbits/s speed=0.0171x elapsed=0:02:20.22    \nframe=  145 fps=1.0 q=34.0 size=    3584KiB time=00:00:02.41 bitrate=12149.0kbits/s speed=0.0172x elapsed=0:02:20.74    \nframe=  146 fps=1.0 q=34.0 size=    3584KiB time=00:00:02.43 bitrate=12065.8kbits/s speed=0.0172x elapsed=0:02:21.26    \nframe=  146 fps=1.0 q=34.0 size=    3584KiB time=00:00:02.43 bitrate=12065.8kbits/s speed=0.0172x elapsed=0:02:21.78    \nframe=  147 fps=1.0 q=34.0 size=    3584KiB time=00:00:02.45 bitrate=11983.7kbits/s speed=0.0172x elapsed=0:02:22.29    \nframe=  147 fps=1.0 q=34.0 size=    3584KiB time=00:00:02.45 bitrate=11983.7kbits/s speed=0.0172x elapsed=0:02:22.83    \nframe=  148 fps=1.0 q=34.0 size=    3584KiB time=00:00:02.46 bitrate=11902.8kbits/s speed=0.0172x elapsed=0:02:23.36    \nframe=  148 fps=1.0 q=34.0 size=    3584KiB time=00:00:02.46 bitrate=11902.8kbits/s speed=0.0171x elapsed=0:02:23.89    \nframe=  149 fps=1.0 q=34.0 size=    3584KiB time=00:00:02.48 bitrate=11822.9kbits/s speed=0.0172x elapsed=0:02:24.42    \nframe=  149 fps=1.0 q=34.0 size=    3584KiB time=00:00:02.48 bitrate=11822.9kbits/s speed=0.0171x elapsed=0:02:24.95    \nframe=  150 fps=1.0 q=34.0 size=    3584KiB time=00:00:02.50 bitrate=11744.1kbits/s speed=0.0172x elapsed=0:02:25.48    \nframe=  150 fps=1.0 q=34.0 size=    3584KiB time=00:00:02.50 bitrate=11744.1kbits/s speed=0.0171x elapsed=0:02:25.99    \nframe=  151 fps=1.0 q=34.0 size=    3584KiB time=00:00:02.51 bitrate=11666.3kbits/s speed=0.0172x elapsed=0:02:26.51    \nframe=  151 fps=1.0 q=34.0 size=    3584KiB time=00:00:02.51 bitrate=11666.3kbits/s speed=0.0171x elapsed=0:02:27.02    \nframe=  152 fps=1.0 q=25.0 size=    3584KiB time=00:00:02.53 bitrate=11589.5kbits/s speed=0.0172x elapsed=0:02:27.55    \nframe=  152 fps=1.0 q=25.0 size=    3584KiB time=00:00:02.53 bitrate=11589.5kbits/s speed=0.0171x elapsed=0:02:28.08    \nframe=  153 fps=1.0 q=29.0 size=    3584KiB time=00:00:02.55 bitrate=11513.8kbits/s speed=0.0172x elapsed=0:02:28.63    \nframe=  154 fps=1.0 q=33.0 size=    3584KiB time=00:00:02.56 bitrate=11439.0kbits/s speed=0.0172x elapsed=0:02:29.20    \nframe=  155 fps=1.0 q=32.0 size=    3584KiB time=00:00:02.58 bitrate=11365.2kbits/s speed=0.0173x elapsed=0:02:29.73    \nframe=  156 fps=1.0 q=32.0 size=    3584KiB time=00:00:02.60 bitrate=11292.4kbits/s speed=0.0173x elapsed=0:02:30.29    \nframe=  157 fps=1.0 q=32.0 size=    3584KiB time=00:00:02.61 bitrate=11220.4kbits/s speed=0.0173x elapsed=0:02:30.92    \nframe=  158 fps=1.0 q=32.0 size=    3584KiB time=00:00:02.63 bitrate=11149.4kbits/s speed=0.0174x elapsed=0:02:31.60    \nframe=  158 fps=1.0 q=32.0 size=    3584KiB time=00:00:02.63 bitrate=11149.4kbits/s speed=0.0173x elapsed=0:02:32.15    \nframe=  159 fps=1.0 q=32.0 size=    3584KiB time=00:00:02.65 bitrate=11079.3kbits/s speed=0.0174x elapsed=0:02:32.67    \nframe=  160 fps=1.0 q=32.0 size=    3584KiB time=00:00:02.66 bitrate=11010.0kbits/s speed=0.0174x elapsed=0:02:33.21    \nframe=  161 fps=1.0 q=32.0 size=    3584KiB time=00:00:02.68 bitrate=10941.7kbits/s speed=0.0175x elapsed=0:02:33.73    \nframe=  162 fps=1.1 q=32.0 size=    3584KiB time=00:00:02.70 bitrate=10874.1kbits/s speed=0.0175x elapsed=0:02:34.24    \nframe=  163 fps=1.1 q=32.0 size=    3584KiB time=00:00:02.71 bitrate=10807.4kbits/s speed=0.0176x elapsed=0:02:34.76    \nframe=  163 fps=1.0 q=23.0 size=    3584KiB time=00:00:02.71 bitrate=10807.4kbits/s speed=0.0175x elapsed=0:02:35.30    \nframe=  165 fps=1.1 q=32.0 size=    3584KiB time=00:00:02.75 bitrate=10676.4kbits/s speed=0.0176x elapsed=0:02:35.85    \nframe=  166 fps=1.1 q=31.0 size=    3584KiB time=00:00:02.76 bitrate=10612.1kbits/s speed=0.0177x elapsed=0:02:36.39    \nframe=  167 fps=1.1 q=31.0 size=    3584KiB time=00:00:02.78 bitrate=10548.6kbits/s speed=0.0177x elapsed=0:02:36.92    \nframe=  168 fps=1.1 q=31.0 size=    3584KiB time=00:00:02.80 bitrate=10485.8kbits/s speed=0.0178x elapsed=0:02:37.51    \nframe=  169 fps=1.1 q=31.0 size=    3584KiB time=00:00:02.81 bitrate=10423.7kbits/s speed=0.0178x elapsed=0:02:38.17    \nframe=  170 fps=1.1 q=31.0 size=    3584KiB time=00:00:02.83 bitrate=10362.4kbits/s speed=0.0179x elapsed=0:02:38.72    \nframe=  171 fps=1.1 q=32.0 size=    3584KiB time=00:00:02.85 bitrate=10301.8kbits/s speed=0.0179x elapsed=0:02:39.24    \nframe=  173 fps=1.1 q=31.0 size=    3584KiB time=00:00:02.88 bitrate=10182.7kbits/s speed=0.018x elapsed=0:02:39.78    \nframe=  174 fps=1.1 q=31.0 size=    3584KiB time=00:00:02.90 bitrate=10124.2kbits/s speed=0.0181x elapsed=0:02:40.32    \nframe=  175 fps=1.1 q=31.0 size=    3584KiB time=00:00:02.91 bitrate=10066.3kbits/s speed=0.0181x elapsed=0:02:40.83    \nframe=  176 fps=1.1 q=22.0 size=    3584KiB time=00:00:02.93 bitrate=10009.1kbits/s speed=0.0182x elapsed=0:02:41.35    \nframe=  176 fps=1.1 q=22.0 size=    3584KiB time=00:00:02.93 bitrate=10009.1kbits/s speed=0.0181x elapsed=0:02:41.88    \nframe=  177 fps=1.1 q=31.0 size=    3584KiB time=00:00:02.95 bitrate=9952.6kbits/s speed=0.0182x elapsed=0:02:42.41    \nframe=  178 fps=1.1 q=31.0 size=    3584KiB time=00:00:02.96 bitrate=9896.7kbits/s speed=0.0182x elapsed=0:02:42.92    \nframe=  179 fps=1.1 q=31.0 size=    3584KiB time=00:00:02.98 bitrate=9841.4kbits/s speed=0.0183x elapsed=0:02:43.44    \nframe=  179 fps=1.1 q=31.0 size=    3584KiB time=00:00:02.98 bitrate=9841.4kbits/s speed=0.0182x elapsed=0:02:43.97    \nframe=  180 fps=1.1 q=31.0 size=    3584KiB time=00:00:03.00 bitrate=9786.7kbits/s speed=0.0182x elapsed=0:02:44.48    \nframe=  180 fps=1.1 q=31.0 size=    3584KiB time=00:00:03.00 bitrate=9786.7kbits/s speed=0.0182x elapsed=0:02:45.03    \nframe=  181 fps=1.1 q=31.0 size=    3584KiB time=00:00:03.01 bitrate=9732.6kbits/s speed=0.0182x elapsed=0:02:45.55    \nframe=  182 fps=1.1 q=32.0 size=    3584KiB time=00:00:03.03 bitrate=9679.2kbits/s speed=0.0182x elapsed=0:02:46.28    \nframe=  184 fps=1.1 q=31.0 size=    3584KiB time=00:00:03.05 bitrate=9626.3kbits/s speed=0.0182x elapsed=0:02:47.18    \nframe=  185 fps=1.1 q=31.0 size=    3584KiB time=00:00:03.08 bitrate=9522.2kbits/s speed=0.0184x elapsed=0:02:47.98    \nframe=  186 fps=1.1 q=31.0 size=    3584KiB time=00:00:03.10 bitrate=9471.0kbits/s speed=0.0184x elapsed=0:02:48.53    \nframe=  187 fps=1.1 q=31.0 size=    3584KiB time=00:00:03.11 bitrate=9420.4kbits/s speed=0.0184x elapsed=0:02:49.06    \nframe=  187 fps=1.1 q=31.0 size=    3584KiB time=00:00:03.11 bitrate=9420.4kbits/s speed=0.0184x elapsed=0:02:49.63    \nframe=  189 fps=1.1 q=31.0 size=    3584KiB time=00:00:03.15 bitrate=9320.7kbits/s speed=0.0185x elapsed=0:02:50.15    \nframe=  189 fps=1.1 q=31.0 size=    3584KiB time=00:00:03.15 bitrate=9320.7kbits/s speed=0.0185x elapsed=0:02:50.66    \nframe=  190 fps=1.1 q=30.0 size=    3584KiB time=00:00:03.16 bitrate=9271.6kbits/s speed=0.0185x elapsed=0:02:51.23    \nframe=  191 fps=1.1 q=31.0 size=    3584KiB time=00:00:03.18 bitrate=9223.1kbits/s speed=0.0185x elapsed=0:02:51.80    \nframe=  192 fps=1.1 q=30.0 size=    3584KiB time=00:00:03.20 bitrate=9175.0kbits/s speed=0.0186x elapsed=0:02:52.32    \nframe=  193 fps=1.1 q=31.0 size=    3584KiB time=00:00:03.21 bitrate=9127.5kbits/s speed=0.0186x elapsed=0:02:52.87    \nframe=  194 fps=1.1 q=31.0 size=    3584KiB time=00:00:03.23 bitrate=9080.5kbits/s speed=0.0186x elapsed=0:02:53.43    \nframe=  196 fps=1.1 q=31.0 size=    3584KiB time=00:00:03.25 bitrate=9033.9kbits/s speed=0.0187x elapsed=0:02:53.94    \nframe=  197 fps=1.1 q=30.0 size=    3584KiB time=00:00:03.28 bitrate=8942.2kbits/s speed=0.0188x elapsed=0:02:54.59    \nframe=  198 fps=1.1 q=31.0 size=    3584KiB time=00:00:03.30 bitrate=8897.0kbits/s speed=0.0188x elapsed=0:02:55.29    \nframe=  199 fps=1.1 q=31.0 size=    3584KiB time=00:00:03.31 bitrate=8852.3kbits/s speed=0.0189x elapsed=0:02:55.93    \nframe=  199 fps=1.1 q=31.0 size=    3584KiB time=00:00:03.31 bitrate=8852.3kbits/s speed=0.0188x elapsed=0:02:56.52    \nframe=  200 fps=1.1 q=21.0 size=    3584KiB time=00:00:03.33 bitrate=8808.0kbits/s speed=0.0188x elapsed=0:02:57.09    \nframe=  201 fps=1.1 q=31.0 size=    3584KiB time=00:00:03.35 bitrate=8764.2kbits/s speed=0.0189x elapsed=0:02:57.67    \nframe=  202 fps=1.1 q=30.0 size=    3584KiB time=00:00:03.36 bitrate=8720.8kbits/s speed=0.0189x elapsed=0:02:58.26    \nframe=  203 fps=1.1 q=31.0 size=    3584KiB time=00:00:03.38 bitrate=8677.9kbits/s speed=0.0189x elapsed=0:02:58.77    \nframe=  203 fps=1.1 q=31.0 size=    3584KiB time=00:00:03.38 bitrate=8677.9kbits/s speed=0.0189x elapsed=0:02:59.30    \nframe=  203 fps=1.1 q=31.0 size=    3584KiB time=00:00:03.38 bitrate=8677.9kbits/s speed=0.0188x elapsed=0:02:59.84    \nframe=  204 fps=1.1 q=30.0 size=    3584KiB time=00:00:03.40 bitrate=8635.3kbits/s speed=0.0189x elapsed=0:03:00.36    \nframe=  205 fps=1.1 q=31.0 size=    3584KiB time=00:00:03.41 bitrate=8593.2kbits/s speed=0.0189x elapsed=0:03:00.87    \nframe=  207 fps=1.1 q=30.0 size=    3584KiB time=00:00:03.45 bitrate=8510.2kbits/s speed=0.019x elapsed=0:03:01.39    \nframe=  208 fps=1.1 q=30.0 size=    3584KiB time=00:00:03.46 bitrate=8469.3kbits/s speed=0.0191x elapsed=0:03:01.95    \nframe=  209 fps=1.1 q=30.0 size=    3584KiB time=00:00:03.48 bitrate=8428.7kbits/s speed=0.0191x elapsed=0:03:02.49    \nframe=  210 fps=1.1 q=30.0 size=    3584KiB time=00:00:03.50 bitrate=8388.6kbits/s speed=0.0191x elapsed=0:03:03.01    \nframe=  211 fps=1.1 q=30.0 size=    3584KiB time=00:00:03.51 bitrate=8348.9kbits/s speed=0.0192x elapsed=0:03:03.54    \nframe=  211 fps=1.1 q=30.0 size=    3584KiB time=00:00:03.51 bitrate=8348.9kbits/s speed=0.0191x elapsed=0:03:04.09    \nframe=  213 fps=1.2 q=30.0 size=    3584KiB time=00:00:03.55 bitrate=8270.5kbits/s speed=0.0192x elapsed=0:03:04.63    \nframe=  214 fps=1.2 q=30.0 size=    3584KiB time=00:00:03.55 bitrate=8270.5kbits/s speed=0.0192x elapsed=0:03:05.15    \nframe=  215 fps=1.2 q=31.0 size=    3584KiB time=00:00:03.58 bitrate=8193.5kbits/s speed=0.0193x elapsed=0:03:05.68    \nframe=  215 fps=1.2 q=31.0 size=    3584KiB time=00:00:03.58 bitrate=8193.5kbits/s speed=0.0192x elapsed=0:03:06.24    \nframe=  216 fps=1.2 q=30.0 size=    3584KiB time=00:00:03.60 bitrate=8155.6kbits/s speed=0.0193x elapsed=0:03:06.76    \nframe=  217 fps=1.2 q=31.0 size=    3584KiB time=00:00:03.61 bitrate=8118.0kbits/s speed=0.0193x elapsed=0:03:07.33    \nframe=  218 fps=1.2 q=31.0 size=    3584KiB time=00:00:03.63 bitrate=8080.8kbits/s speed=0.0193x elapsed=0:03:07.89    \nframe=  219 fps=1.2 q=31.0 size=    3584KiB time=00:00:03.65 bitrate=8043.9kbits/s speed=0.0194x elapsed=0:03:08.41    \nframe=  220 fps=1.2 q=31.0 size=    3584KiB time=00:00:03.66 bitrate=8007.3kbits/s speed=0.0194x elapsed=0:03:08.99    \nframe=  221 fps=1.2 q=31.0 size=    3584KiB time=00:00:03.68 bitrate=7971.1kbits/s speed=0.0194x elapsed=0:03:09.52    \nframe=  222 fps=1.2 q=31.0 size=    3584KiB time=00:00:03.70 bitrate=7935.2kbits/s speed=0.0195x elapsed=0:03:10.08    \nframe=  223 fps=1.2 q=31.0 size=    3584KiB time=00:00:03.71 bitrate=7899.6kbits/s speed=0.0195x elapsed=0:03:10.65    \nframe=  224 fps=1.2 q=22.0 size=    3584KiB time=00:00:03.73 bitrate=7864.3kbits/s speed=0.0195x elapsed=0:03:11.25    \nframe=  225 fps=1.2 q=31.0 size=    3584KiB time=00:00:03.75 bitrate=7829.4kbits/s speed=0.0196x elapsed=0:03:11.79    \nframe=  226 fps=1.2 q=30.0 size=    3584KiB time=00:00:03.76 bitrate=7794.7kbits/s speed=0.0196x elapsed=0:03:12.31    \nframe=  227 fps=1.2 q=31.0 size=    3584KiB time=00:00:03.78 bitrate=7760.4kbits/s speed=0.0196x elapsed=0:03:12.83    \nframe=  228 fps=1.2 q=31.0 size=    3584KiB time=00:00:03.80 bitrate=7726.3kbits/s speed=0.0197x elapsed=0:03:13.36    \nframe=  229 fps=1.2 q=31.0 size=    3584KiB time=00:00:03.81 bitrate=7692.6kbits/s speed=0.0197x elapsed=0:03:13.86    \nframe=  230 fps=1.2 q=31.0 size=    3584KiB time=00:00:03.83 bitrate=7659.2kbits/s speed=0.0197x elapsed=0:03:14.39    \nframe=  230 fps=1.2 q=31.0 size=    3584KiB time=00:00:03.83 bitrate=7659.2kbits/s speed=0.0197x elapsed=0:03:14.90    \nframe=  231 fps=1.2 q=31.0 size=    3584KiB time=00:00:03.86 bitrate=7593.1kbits/s speed=0.0198x elapsed=0:03:15.41    \nframe=  232 fps=1.2 q=31.0 size=    3584KiB time=00:00:03.86 bitrate=7593.1kbits/s speed=0.0197x elapsed=0:03:15.93    \nframe=  233 fps=1.2 q=31.0 size=    3584KiB time=00:00:03.88 bitrate=7560.5kbits/s speed=0.0198x elapsed=0:03:16.45    \nframe=  234 fps=1.2 q=31.0 size=    3584KiB time=00:00:03.90 bitrate=7528.2kbits/s speed=0.0198x elapsed=0:03:16.96    \nframe=  235 fps=1.2 q=31.0 size=    3584KiB time=00:00:03.91 bitrate=7496.2kbits/s speed=0.0198x elapsed=0:03:17.48    \nframe=  235 fps=1.2 q=31.0 size=    3584KiB time=00:00:03.91 bitrate=7496.2kbits/s speed=0.0198x elapsed=0:03:18.00    \nframe=  236 fps=1.2 q=22.0 size=    3584KiB time=00:00:03.93 bitrate=7464.4kbits/s speed=0.0198x elapsed=0:03:18.51    \nframe=  237 fps=1.2 q=33.0 size=    3584KiB time=00:00:03.95 bitrate=7432.9kbits/s speed=0.0198x elapsed=0:03:19.02    \nframe=  238 fps=1.2 q=31.0 size=    3584KiB time=00:00:03.96 bitrate=7401.7kbits/s speed=0.0199x elapsed=0:03:19.54    \nframe=  240 fps=1.2 q=31.0 size=    3584KiB time=00:00:04.00 bitrate=7340.0kbits/s speed=0.02x elapsed=0:03:20.06    \nframe=  240 fps=1.2 q=31.0 size=    3584KiB time=00:00:04.00 bitrate=7340.0kbits/s speed=0.0199x elapsed=0:03:20.57    \nframe=  241 fps=1.2 q=31.0 size=    3584KiB time=00:00:04.01 bitrate=7309.6kbits/s speed=0.02x elapsed=0:03:21.09    \nframe=  242 fps=1.2 q=31.0 size=    3584KiB time=00:00:04.03 bitrate=7279.4kbits/s speed=0.02x elapsed=0:03:21.61    \nframe=  242 fps=1.2 q=31.0 size=    3584KiB time=00:00:04.03 bitrate=7279.4kbits/s speed=0.02x elapsed=0:03:22.12    \nframe=  243 fps=1.2 q=31.0 size=    3584KiB time=00:00:04.05 bitrate=7249.4kbits/s speed=0.02x elapsed=0:03:22.63    \nframe=  244 fps=1.2 q=31.0 size=    3584KiB time=00:00:04.06 bitrate=7219.7kbits/s speed=0.02x elapsed=0:03:23.16    \nframe=  245 fps=1.2 q=31.0 size=    3584KiB time=00:00:04.08 bitrate=7190.2kbits/s speed=0.02x elapsed=0:03:23.66    \nframe=  245 fps=1.2 q=31.0 size=    3584KiB time=00:00:04.08 bitrate=7190.2kbits/s speed=0.02x elapsed=0:03:24.18    \nframe=  246 fps=1.2 q=22.0 size=    3584KiB time=00:00:04.10 bitrate=7161.0kbits/s speed=0.02x elapsed=0:03:24.71    \nframe=  247 fps=1.2 q=31.0 size=    3584KiB time=00:00:04.11 bitrate=7132.0kbits/s speed=0.0201x elapsed=0:03:25.22    \nframe=  248 fps=1.2 q=31.0 size=    3584KiB time=00:00:04.13 bitrate=7103.3kbits/s speed=0.0201x elapsed=0:03:25.73    \nframe=  249 fps=1.2 q=31.0 size=    3584KiB time=00:00:04.15 bitrate=7074.7kbits/s speed=0.0201x elapsed=0:03:26.24    \nframe=  250 fps=1.2 q=32.0 size=    3584KiB time=00:00:04.16 bitrate=7046.4kbits/s speed=0.0202x elapsed=0:03:26.75    \nframe=  251 fps=1.2 q=32.0 size=    3584KiB time=00:00:04.18 bitrate=7018.4kbits/s speed=0.0202x elapsed=0:03:27.27    \nframe=  252 fps=1.2 q=32.0 size=    3584KiB time=00:00:04.20 bitrate=6990.5kbits/s speed=0.0202x elapsed=0:03:27.79    \nframe=  253 fps=1.2 q=31.0 size=    3584KiB time=00:00:04.21 bitrate=6962.9kbits/s speed=0.0202x elapsed=0:03:28.31    \nframe=  254 fps=1.2 q=32.0 size=    3584KiB time=00:00:04.23 bitrate=6935.5kbits/s speed=0.0203x elapsed=0:03:28.82    \nframe=  255 fps=1.2 q=32.0 size=    3584KiB time=00:00:04.25 bitrate=6908.3kbits/s speed=0.0203x elapsed=0:03:29.35    \nframe=  256 fps=1.2 q=32.0 size=    3584KiB time=00:00:04.26 bitrate=6881.3kbits/s speed=0.0203x elapsed=0:03:29.87    \nframe=  256 fps=1.2 q=32.0 size=    3584KiB time=00:00:04.26 bitrate=6881.3kbits/s speed=0.0203x elapsed=0:03:30.39    \nframe=  256 fps=1.2 q=32.0 size=    3584KiB time=00:00:04.26 bitrate=6881.3kbits/s speed=0.0202x elapsed=0:03:30.91    \nframe=  258 fps=1.2 q=32.0 size=    6912KiB time=00:00:04.30 bitrate=13168.2kbits/s speed=0.0203x elapsed=0:03:31.43    \nframe=  258 fps=1.2 q=32.0 size=    6912KiB time=00:00:04.30 bitrate=13168.2kbits/s speed=0.0203x elapsed=0:03:31.94    \nframe=  259 fps=1.2 q=31.0 size=    6912KiB time=00:00:04.31 bitrate=13117.3kbits/s speed=0.0203x elapsed=0:03:32.47    \nframe=  260 fps=1.2 q=34.0 size=    6912KiB time=00:00:04.33 bitrate=13066.9kbits/s speed=0.0203x elapsed=0:03:32.98    \nframe=  261 fps=1.2 q=33.0 size=    6912KiB time=00:00:04.35 bitrate=13016.8kbits/s speed=0.0204x elapsed=0:03:33.49    \nframe=  261 fps=1.2 q=33.0 size=    6912KiB time=00:00:04.35 bitrate=13016.8kbits/s speed=0.0203x elapsed=0:03:34.01    \nframe=  262 fps=1.2 q=33.0 size=    6912KiB time=00:00:04.36 bitrate=12967.1kbits/s speed=0.0204x elapsed=0:03:34.53    \nframe=  263 fps=1.2 q=32.0 size=    6912KiB time=00:00:04.38 bitrate=12917.8kbits/s speed=0.0204x elapsed=0:03:35.04    \nframe=  263 fps=1.2 q=32.0 size=    6912KiB time=00:00:04.38 bitrate=12917.8kbits/s speed=0.0203x elapsed=0:03:35.55    \nframe=  263 fps=1.2 q=32.0 size=    6912KiB time=00:00:04.38 bitrate=12917.8kbits/s speed=0.0203x elapsed=0:03:36.08    \nframe=  264 fps=1.2 q=32.0 size=    6912KiB time=00:00:04.40 bitrate=12868.9kbits/s speed=0.0203x elapsed=0:03:36.58    \nframe=  265 fps=1.2 q=32.0 size=    6912KiB time=00:00:04.41 bitrate=12820.3kbits/s speed=0.0203x elapsed=0:03:37.11    \nframe=  265 fps=1.2 q=32.0 size=    6912KiB time=00:00:04.41 bitrate=12820.3kbits/s speed=0.0203x elapsed=0:03:37.63    \nframe=  266 fps=1.2 q=32.0 size=    6912KiB time=00:00:04.43 bitrate=12772.1kbits/s speed=0.0203x elapsed=0:03:38.13    \nframe=  266 fps=1.2 q=32.0 size=    6912KiB time=00:00:04.43 bitrate=12772.1kbits/s speed=0.0203x elapsed=0:03:38.66    \nframe=  267 fps=1.2 q=32.0 size=    6912KiB time=00:00:04.45 bitrate=12724.3kbits/s speed=0.0203x elapsed=0:03:39.16    \nframe=  267 fps=1.2 q=32.0 size=    6912KiB time=00:00:04.45 bitrate=12724.3kbits/s speed=0.0203x elapsed=0:03:39.69    \nframe=  268 fps=1.2 q=32.0 size=    6912KiB time=00:00:04.46 bitrate=12676.8kbits/s speed=0.0203x elapsed=0:03:40.21    \nframe=  268 fps=1.2 q=32.0 size=    6912KiB time=00:00:04.46 bitrate=12676.8kbits/s speed=0.0202x elapsed=0:03:40.72    \nframe=  269 fps=1.2 q=23.0 size=    6912KiB time=00:00:04.48 bitrate=12629.7kbits/s speed=0.0203x elapsed=0:03:41.23    \nframe=  270 fps=1.2 q=32.0 size=    6912KiB time=00:00:04.50 bitrate=12582.9kbits/s speed=0.0203x elapsed=0:03:41.75    \nframe=  270 fps=1.2 q=32.0 size=    6912KiB time=00:00:04.50 bitrate=12582.9kbits/s speed=0.0202x elapsed=0:03:42.27    \nframe=  271 fps=1.2 q=31.0 size=    6912KiB time=00:00:04.51 bitrate=12536.5kbits/s speed=0.0203x elapsed=0:03:42.77    \nframe=  271 fps=1.2 q=31.0 size=    6912KiB time=00:00:04.51 bitrate=12536.5kbits/s speed=0.0202x elapsed=0:03:43.30    \nframe=  272 fps=1.2 q=31.0 size=    6912KiB time=00:00:04.53 bitrate=12490.4kbits/s speed=0.0203x elapsed=0:03:43.81    \nframe=  273 fps=1.2 q=31.0 size=    6912KiB time=00:00:04.55 bitrate=12444.6kbits/s speed=0.0203x elapsed=0:03:44.32    \nframe=  273 fps=1.2 q=31.0 size=    6912KiB time=00:00:04.55 bitrate=12444.6kbits/s speed=0.0202x elapsed=0:03:44.83    \nframe=  274 fps=1.2 q=32.0 size=    6912KiB time=00:00:04.56 bitrate=12399.2kbits/s speed=0.0203x elapsed=0:03:45.36    \nframe=  275 fps=1.2 q=32.0 size=    6912KiB time=00:00:04.58 bitrate=12354.1kbits/s speed=0.0203x elapsed=0:03:45.87    \nframe=  275 fps=1.2 q=32.0 size=    6912KiB time=00:00:04.58 bitrate=12354.1kbits/s speed=0.0202x elapsed=0:03:46.39    \nframe=  276 fps=1.2 q=33.0 size=    6912KiB time=00:00:04.60 bitrate=12309.4kbits/s speed=0.0203x elapsed=0:03:46.90    \nframe=  276 fps=1.2 q=33.0 size=    6912KiB time=00:00:04.60 bitrate=12309.4kbits/s speed=0.0202x elapsed=0:03:47.42    \nframe=  277 fps=1.2 q=32.0 size=    6912KiB time=00:00:04.61 bitrate=12264.9kbits/s speed=0.0203x elapsed=0:03:47.93    \nframe=  277 fps=1.2 q=32.0 size=    6912KiB time=00:00:04.61 bitrate=12264.9kbits/s speed=0.0202x elapsed=0:03:48.45    \nframe=  278 fps=1.2 q=32.0 size=    6912KiB time=00:00:04.63 bitrate=12220.8kbits/s speed=0.0202x elapsed=0:03:48.96    \nframe=  279 fps=1.2 q=32.0 size=    6912KiB time=00:00:04.65 bitrate=12177.0kbits/s speed=0.0203x elapsed=0:03:49.47    \nframe=  280 fps=1.2 q=32.0 size=    6912KiB time=00:00:04.66 bitrate=12133.5kbits/s speed=0.0203x elapsed=0:03:50.00    \nframe=  280 fps=1.2 q=32.0 size=    6912KiB time=00:00:04.66 bitrate=12133.5kbits/s speed=0.0202x elapsed=0:03:50.51    \nframe=  281 fps=1.2 q=23.0 size=    6912KiB time=00:00:04.68 bitrate=12090.3kbits/s speed=0.0203x elapsed=0:03:51.03    \nframe=  282 fps=1.2 q=32.0 size=    6912KiB time=00:00:04.70 bitrate=12047.5kbits/s speed=0.0203x elapsed=0:03:51.55    \nframe=  282 fps=1.2 q=32.0 size=    6912KiB time=00:00:04.70 bitrate=12047.5kbits/s speed=0.0203x elapsed=0:03:52.06    \nframe=  283 fps=1.2 q=31.0 size=    6912KiB time=00:00:04.71 bitrate=12004.9kbits/s speed=0.0203x elapsed=0:03:52.58    \nframe=  284 fps=1.2 q=33.0 size=    6912KiB time=00:00:04.73 bitrate=11962.6kbits/s speed=0.0203x elapsed=0:03:53.08    \nframe=  285 fps=1.2 q=33.0 size=    6912KiB time=00:00:04.75 bitrate=11920.7kbits/s speed=0.0203x elapsed=0:03:53.61    \nframe=  286 fps=1.2 q=32.0 size=    6912KiB time=00:00:04.76 bitrate=11879.0kbits/s speed=0.0204x elapsed=0:03:54.13    \nframe=  287 fps=1.2 q=32.0 size=    6912KiB time=00:00:04.78 bitrate=11837.6kbits/s speed=0.0204x elapsed=0:03:54.64    \nframe=  288 fps=1.2 q=32.0 size=    6912KiB time=00:00:04.80 bitrate=11796.5kbits/s speed=0.0204x elapsed=0:03:55.16    \nframe=  289 fps=1.2 q=32.0 size=    6912KiB time=00:00:04.81 bitrate=11755.7kbits/s speed=0.0204x elapsed=0:03:55.67    \nframe=  290 fps=1.2 q=32.0 size=    6912KiB time=00:00:04.83 bitrate=11715.1kbits/s speed=0.0205x elapsed=0:03:56.19    \nframe=  291 fps=1.2 q=32.0 size=    6912KiB time=00:00:04.85 bitrate=11674.9kbits/s speed=0.0205x elapsed=0:03:56.71    \nframe=  292 fps=1.2 q=32.0 size=    6912KiB time=00:00:04.86 bitrate=11634.9kbits/s speed=0.0205x elapsed=0:03:57.23    \nframe=  293 fps=1.2 q=23.0 size=    6912KiB time=00:00:04.88 bitrate=11595.2kbits/s speed=0.0205x elapsed=0:03:57.75    \nframe=  293 fps=1.2 q=23.0 size=    6912KiB time=00:00:04.88 bitrate=11595.2kbits/s speed=0.0205x elapsed=0:03:58.27    \nframe=  294 fps=1.2 q=32.0 size=    6912KiB time=00:00:04.90 bitrate=11555.7kbits/s speed=0.0205x elapsed=0:03:58.79    \nframe=  295 fps=1.2 q=31.0 size=    6912KiB time=00:00:04.91 bitrate=11516.6kbits/s speed=0.0205x elapsed=0:03:59.31    \nframe=  296 fps=1.2 q=32.0 size=    6912KiB time=00:00:04.93 bitrate=11477.7kbits/s speed=0.0206x elapsed=0:03:59.83    \nframe=  297 fps=1.2 q=32.0 size=    6912KiB time=00:00:04.95 bitrate=11439.0kbits/s speed=0.0206x elapsed=0:04:00.34    \nframe=  298 fps=1.2 q=32.0 size=    6912KiB time=00:00:04.96 bitrate=11400.6kbits/s speed=0.0206x elapsed=0:04:00.86    \nframe=  298 fps=1.2 q=32.0 size=    6912KiB time=00:00:04.96 bitrate=11400.6kbits/s speed=0.0206x elapsed=0:04:01.38    \nframe=  300 fps=1.2 q=33.0 size=    6912KiB time=00:00:05.00 bitrate=11324.6kbits/s speed=0.0207x elapsed=0:04:01.89    \nframe=  301 fps=1.2 q=33.0 size=    6912KiB time=00:00:05.01 bitrate=11287.0kbits/s speed=0.0207x elapsed=0:04:02.40    \nframe=  302 fps=1.2 q=33.0 size=    6912KiB time=00:00:05.03 bitrate=11249.6kbits/s speed=0.0207x elapsed=0:04:02.92    \nframe=  303 fps=1.2 q=33.0 size=    6912KiB time=00:00:05.05 bitrate=11212.5kbits/s speed=0.0207x elapsed=0:04:03.44    \nframe=  304 fps=1.2 q=33.0 size=    6912KiB time=00:00:05.06 bitrate=11175.6kbits/s speed=0.0208x elapsed=0:04:03.95    \nframe=  304 fps=1.2 q=33.0 size=    6912KiB time=00:00:05.06 bitrate=11175.6kbits/s speed=0.0207x elapsed=0:04:04.46    \nframe=  305 fps=1.2 q=24.0 size=    6912KiB time=00:00:05.08 bitrate=11139.0kbits/s speed=0.0207x elapsed=0:04:04.98    \nframe=  306 fps=1.2 q=33.0 size=    6912KiB time=00:00:05.10 bitrate=11102.6kbits/s speed=0.0208x elapsed=0:04:05.50    \nframe=  307 fps=1.2 q=31.0 size=    6912KiB time=00:00:05.11 bitrate=11066.4kbits/s speed=0.0208x elapsed=0:04:06.00    \nframe=  308 fps=1.2 q=32.0 size=    6912KiB time=00:00:05.13 bitrate=11030.5kbits/s speed=0.0208x elapsed=0:04:06.52    \nframe=  309 fps=1.3 q=32.0 size=    6912KiB time=00:00:05.15 bitrate=10994.8kbits/s speed=0.0208x elapsed=0:04:07.04    \nframe=  310 fps=1.3 q=33.0 size=    6912KiB time=00:00:05.16 bitrate=10959.3kbits/s speed=0.0209x elapsed=0:04:07.56    \nframe=  311 fps=1.3 q=33.0 size=    6912KiB time=00:00:05.18 bitrate=10924.1kbits/s speed=0.0209x elapsed=0:04:08.07    \nframe=  312 fps=1.3 q=33.0 size=    6912KiB time=00:00:05.20 bitrate=10889.1kbits/s speed=0.0209x elapsed=0:04:08.59    \nframe=  313 fps=1.3 q=33.0 size=    6912KiB time=00:00:05.21 bitrate=10854.3kbits/s speed=0.0209x elapsed=0:04:09.10    \nframe=  314 fps=1.3 q=33.0 size=    6912KiB time=00:00:05.23 bitrate=10819.7kbits/s speed=0.021x elapsed=0:04:09.62    \nframe=  315 fps=1.3 q=33.0 size=    6912KiB time=00:00:05.25 bitrate=10785.4kbits/s speed=0.021x elapsed=0:04:10.14    \nframe=  316 fps=1.3 q=33.0 size=    6912KiB time=00:00:05.26 bitrate=10751.2kbits/s speed=0.021x elapsed=0:04:10.66    \nframe=  316 fps=1.3 q=33.0 size=    6912KiB time=00:00:05.26 bitrate=10751.2kbits/s speed=0.021x elapsed=0:04:11.18    \nframe=  317 fps=1.3 q=25.0 size=    6912KiB time=00:00:05.28 bitrate=10717.3kbits/s speed=0.021x elapsed=0:04:11.69    \nframe=  318 fps=1.3 q=35.0 size=    6912KiB time=00:00:05.30 bitrate=10683.6kbits/s speed=0.021x elapsed=0:04:12.20    \nframe=  318 fps=1.3 q=35.0 size=    6912KiB time=00:00:05.30 bitrate=10683.6kbits/s speed=0.021x elapsed=0:04:12.71    \nframe=  319 fps=1.3 q=32.0 size=    6912KiB time=00:00:05.31 bitrate=10650.1kbits/s speed=0.021x elapsed=0:04:13.23    \nframe=  319 fps=1.3 q=32.0 size=    6912KiB time=00:00:05.31 bitrate=10650.1kbits/s speed=0.021x elapsed=0:04:13.74    \nframe=  320 fps=1.3 q=36.0 size=    6912KiB time=00:00:05.33 bitrate=10616.8kbits/s speed=0.021x elapsed=0:04:14.27    \nframe=  321 fps=1.3 q=33.0 size=    6912KiB time=00:00:05.35 bitrate=10583.8kbits/s speed=0.021x elapsed=0:04:14.78    \nframe=  322 fps=1.3 q=35.0 size=    6912KiB time=00:00:05.36 bitrate=10550.9kbits/s speed=0.021x elapsed=0:04:15.29    \nframe=  322 fps=1.3 q=35.0 size=    6912KiB time=00:00:05.36 bitrate=10550.9kbits/s speed=0.021x elapsed=0:04:15.81    \nframe=  322 fps=1.3 q=35.0 size=    6912KiB time=00:00:05.36 bitrate=10550.9kbits/s speed=0.0209x elapsed=0:04:16.32    \nframe=  322 fps=1.3 q=35.0 size=    6912KiB time=00:00:05.36 bitrate=10550.9kbits/s speed=0.0209x elapsed=0:04:16.84    \nframe=  323 fps=1.3 q=21.0 size=    6912KiB time=00:00:05.38 bitrate=10518.2kbits/s speed=0.0209x elapsed=0:04:17.35    \nframe=  324 fps=1.3 q=35.0 size=    6912KiB time=00:00:05.40 bitrate=10485.8kbits/s speed=0.0209x elapsed=0:04:17.87    \nframe=  324 fps=1.3 q=35.0 size=    6912KiB time=00:00:05.40 bitrate=10485.8kbits/s speed=0.0209x elapsed=0:04:18.39    \nframe=  325 fps=1.3 q=34.0 size=    6912KiB time=00:00:05.41 bitrate=10453.5kbits/s speed=0.0209x elapsed=0:04:18.90    \nframe=  326 fps=1.3 q=34.0 size=    6912KiB time=00:00:05.43 bitrate=10421.4kbits/s speed=0.0209x elapsed=0:04:19.41    \nframe=  327 fps=1.3 q=33.0 size=    6912KiB time=00:00:05.45 bitrate=10389.6kbits/s speed=0.021x elapsed=0:04:19.93    \nframe=  327 fps=1.3 q=33.0 size=    6912KiB time=00:00:05.45 bitrate=10389.6kbits/s speed=0.0209x elapsed=0:04:20.45    \nframe=  328 fps=1.3 q=35.0 size=    6912KiB time=00:00:05.46 bitrate=10357.9kbits/s speed=0.0209x elapsed=0:04:20.96    \nframe=  328 fps=1.3 q=35.0 size=    6912KiB time=00:00:05.46 bitrate=10357.9kbits/s speed=0.0209x elapsed=0:04:21.48    \nframe=  329 fps=1.3 q=34.0 size=    6912KiB time=00:00:05.48 bitrate=10326.4kbits/s speed=0.0209x elapsed=0:04:22.00    \nframe=  330 fps=1.3 q=35.0 size=    6912KiB time=00:00:05.50 bitrate=10295.1kbits/s speed=0.021x elapsed=0:04:22.51    \nframe=  330 fps=1.3 q=35.0 size=    6912KiB time=00:00:05.50 bitrate=10295.1kbits/s speed=0.0209x elapsed=0:04:23.02    \nframe=  331 fps=1.3 q=34.0 size=    6912KiB time=00:00:05.51 bitrate=10264.0kbits/s speed=0.0209x elapsed=0:04:23.54    \nframe=  332 fps=1.3 q=35.0 size=    6912KiB time=00:00:05.53 bitrate=10233.1kbits/s speed=0.021x elapsed=0:04:24.05    \nframe=  332 fps=1.3 q=35.0 size=    6912KiB time=00:00:05.53 bitrate=10233.1kbits/s speed=0.0209x elapsed=0:04:24.58    \nframe=  333 fps=1.3 q=34.0 size=    6912KiB time=00:00:05.55 bitrate=10202.4kbits/s speed=0.0209x elapsed=0:04:25.08    \nframe=  334 fps=1.3 q=34.0 size=    6912KiB time=00:00:05.56 bitrate=10171.8kbits/s speed=0.021x elapsed=0:04:25.61    \nframe=  334 fps=1.3 q=34.0 size=    6912KiB time=00:00:05.56 bitrate=10171.8kbits/s speed=0.0209x elapsed=0:04:26.12    \nframe=  334 fps=1.3 q=34.0 size=    6912KiB time=00:00:05.56 bitrate=10171.8kbits/s speed=0.0209x elapsed=0:04:26.64    \nframe=  335 fps=1.3 q=21.0 size=    6912KiB time=00:00:05.58 bitrate=10141.5kbits/s speed=0.0209x elapsed=0:04:27.15    \nframe=  336 fps=1.3 q=36.0 size=    6912KiB time=00:00:05.60 bitrate=10111.3kbits/s speed=0.0209x elapsed=0:04:27.67    \nframe=  336 fps=1.3 q=36.0 size=    6912KiB time=00:00:05.60 bitrate=10111.3kbits/s speed=0.0209x elapsed=0:04:28.19    \nframe=  337 fps=1.3 q=34.0 size=    6912KiB time=00:00:05.61 bitrate=10081.3kbits/s speed=0.0209x elapsed=0:04:28.70    \nframe=  338 fps=1.3 q=34.0 size=    6912KiB time=00:00:05.63 bitrate=10051.4kbits/s speed=0.0209x elapsed=0:04:29.21    \nframe=  339 fps=1.3 q=34.0 size=    6912KiB time=00:00:05.65 bitrate=10021.8kbits/s speed=0.0209x elapsed=0:04:29.74    \nframe=  340 fps=1.3 q=34.0 size=    6912KiB time=00:00:05.66 bitrate=9992.3kbits/s speed=0.021x elapsed=0:04:30.26    \nframe=  340 fps=1.3 q=34.0 size=    6912KiB time=00:00:05.66 bitrate=9992.3kbits/s speed=0.0209x elapsed=0:04:30.77    \nframe=  342 fps=1.3 q=35.0 size=    6912KiB time=00:00:05.70 bitrate=9933.9kbits/s speed=0.021x elapsed=0:04:31.29    \nframe=  342 fps=1.3 q=35.0 size=    6912KiB time=00:00:05.70 bitrate=9933.9kbits/s speed=0.021x elapsed=0:04:31.81    \nframe=  343 fps=1.3 q=35.0 size=    6912KiB time=00:00:05.71 bitrate=9904.9kbits/s speed=0.021x elapsed=0:04:32.33    \nframe=  344 fps=1.3 q=35.0 size=    6912KiB time=00:00:05.73 bitrate=9876.1kbits/s speed=0.021x elapsed=0:04:32.86    \nframe=  345 fps=1.3 q=35.0 size=    6912KiB time=00:00:05.75 bitrate=9847.5kbits/s speed=0.021x elapsed=0:04:33.37    \nframe=  346 fps=1.3 q=35.0 size=    6912KiB time=00:00:05.76 bitrate=9819.0kbits/s speed=0.021x elapsed=0:04:33.95    \nframe=  346 fps=1.3 q=35.0 size=    6912KiB time=00:00:05.76 bitrate=9819.0kbits/s speed=0.021x elapsed=0:04:34.47    \nframe=  348 fps=1.3 q=35.0 size=    6912KiB time=00:00:05.80 bitrate=9762.6kbits/s speed=0.0211x elapsed=0:04:35.16    \nframe=  349 fps=1.3 q=34.0 size=    6912KiB time=00:00:05.81 bitrate=9734.6kbits/s speed=0.0211x elapsed=0:04:35.70    \nframe=  350 fps=1.3 q=35.0 size=    6912KiB time=00:00:05.83 bitrate=9706.8kbits/s speed=0.0211x elapsed=0:04:36.22    \nframe=  352 fps=1.3 q=35.0 size=    6912KiB time=00:00:05.86 bitrate=9651.7kbits/s speed=0.0212x elapsed=0:04:36.76    \nframe=  353 fps=1.3 q=35.0 size=    6912KiB time=00:00:05.88 bitrate=9624.3kbits/s speed=0.0212x elapsed=0:04:37.32    \nframe=  354 fps=1.3 q=35.0 size=    6912KiB time=00:00:05.90 bitrate=9597.1kbits/s speed=0.0212x elapsed=0:04:37.87    \nframe=  355 fps=1.3 q=34.0 size=    6912KiB time=00:00:05.91 bitrate=9570.1kbits/s speed=0.0212x elapsed=0:04:38.45    \nframe=  356 fps=1.3 q=34.0 size=    6912KiB time=00:00:05.93 bitrate=9543.2kbits/s speed=0.0213x elapsed=0:04:38.97    \nframe=  357 fps=1.3 q=35.0 size=    6912KiB time=00:00:05.95 bitrate=9516.5kbits/s speed=0.0213x elapsed=0:04:39.53    \nframe=  358 fps=1.3 q=35.0 size=    6912KiB time=00:00:05.96 bitrate=9489.9kbits/s speed=0.0213x elapsed=0:04:40.19    \nframe=  358 fps=1.3 q=35.0 size=    6912KiB time=00:00:05.96 bitrate=9489.9kbits/s speed=0.0213x elapsed=0:04:40.70    \nframe=  359 fps=1.3 q=23.0 size=    6912KiB time=00:00:05.98 bitrate=9463.5kbits/s speed=0.0213x elapsed=0:04:41.21    \nframe=  360 fps=1.3 q=35.0 size=    6912KiB time=00:00:06.00 bitrate=9437.2kbits/s speed=0.0213x elapsed=0:04:41.73    \nframe=  361 fps=1.3 q=33.0 size=    6912KiB time=00:00:06.01 bitrate=9411.0kbits/s speed=0.0213x elapsed=0:04:42.25    \nframe=  362 fps=1.3 q=36.0 size=    6912KiB time=00:00:06.03 bitrate=9385.0kbits/s speed=0.0213x elapsed=0:04:42.77    \nframe=  364 fps=1.3 q=35.0 size=    6912KiB time=00:00:06.06 bitrate=9333.5kbits/s speed=0.0214x elapsed=0:04:43.28    \nframe=  365 fps=1.3 q=34.0 size=    6912KiB time=00:00:06.08 bitrate=9307.9kbits/s speed=0.0214x elapsed=0:04:43.79    \nframe=  366 fps=1.3 q=35.0 size=    6912KiB time=00:00:06.10 bitrate=9282.5kbits/s speed=0.0215x elapsed=0:04:44.31    \nframe=  367 fps=1.3 q=35.0 size=    6912KiB time=00:00:06.11 bitrate=9257.2kbits/s speed=0.0215x elapsed=0:04:44.83    \nframe=  368 fps=1.3 q=35.0 size=    6912KiB time=00:00:06.13 bitrate=9232.0kbits/s speed=0.0215x elapsed=0:04:45.33    \nframe=  369 fps=1.3 q=35.0 size=    6912KiB time=00:00:06.15 bitrate=9207.0kbits/s speed=0.0215x elapsed=0:04:45.85    \nframe=  370 fps=1.3 q=35.0 size=    6912KiB time=00:00:06.16 bitrate=9182.1kbits/s speed=0.0215x elapsed=0:04:46.37    \nframe=  370 fps=1.3 q=35.0 size=    6912KiB time=00:00:06.16 bitrate=9182.1kbits/s speed=0.0215x elapsed=0:04:46.89    \nframe=  371 fps=1.3 q=26.0 size=    6912KiB time=00:00:06.18 bitrate=9157.4kbits/s speed=0.0215x elapsed=0:04:47.40    \nframe=  372 fps=1.3 q=39.0 size=    6912KiB time=00:00:06.20 bitrate=9132.8kbits/s speed=0.0215x elapsed=0:04:47.91    \nframe=  374 fps=1.3 q=38.0 size=    6912KiB time=00:00:06.23 bitrate=9083.9kbits/s speed=0.0216x elapsed=0:04:48.43    \nframe=  374 fps=1.3 q=38.0 size=    6912KiB time=00:00:06.23 bitrate=9083.9kbits/s speed=0.0216x elapsed=0:04:48.95    \nframe=  376 fps=1.3 q=36.0 size=    6912KiB time=00:00:06.26 bitrate=9035.6kbits/s speed=0.0216x elapsed=0:04:49.46    \nframe=  377 fps=1.3 q=36.0 size=    6912KiB time=00:00:06.28 bitrate=9011.6kbits/s speed=0.0217x elapsed=0:04:49.98    \nframe=  377 fps=1.3 q=36.0 size=    6912KiB time=00:00:06.28 bitrate=9011.6kbits/s speed=0.0216x elapsed=0:04:50.50    \nframe=  378 fps=1.3 q=27.0 size=    6912KiB time=00:00:06.30 bitrate=8987.8kbits/s speed=0.0216x elapsed=0:04:51.01    \nframe=  379 fps=1.3 q=36.0 size=    6912KiB time=00:00:06.31 bitrate=8964.1kbits/s speed=0.0217x elapsed=0:04:51.53    \nframe=  380 fps=1.3 q=36.0 size=    6912KiB time=00:00:06.33 bitrate=8940.5kbits/s speed=0.0217x elapsed=0:04:52.05    \nframe=  381 fps=1.3 q=37.0 size=    6912KiB time=00:00:06.35 bitrate=8917.0kbits/s speed=0.0217x elapsed=0:04:52.55    \nframe=  382 fps=1.3 q=35.0 size=    6912KiB time=00:00:06.36 bitrate=8893.7kbits/s speed=0.0217x elapsed=0:04:53.07    \nframe=  383 fps=1.3 q=38.0 size=    6912KiB time=00:00:06.38 bitrate=8870.5kbits/s speed=0.0217x elapsed=0:04:53.58    \nframe=  384 fps=1.3 q=36.0 size=    6912KiB time=00:00:06.40 bitrate=8847.4kbits/s speed=0.0218x elapsed=0:04:54.10    \nframe=  384 fps=1.3 q=36.0 size=    6912KiB time=00:00:06.40 bitrate=8847.4kbits/s speed=0.0217x elapsed=0:04:54.62    \nframe=  384 fps=1.3 q=36.0 size=    6912KiB time=00:00:06.40 bitrate=8847.4kbits/s speed=0.0217x elapsed=0:04:55.14    \nframe=  384 fps=1.3 q=36.0 size=    6912KiB time=00:00:06.40 bitrate=8847.4kbits/s speed=0.0216x elapsed=0:04:55.65    \nframe=  386 fps=1.3 q=31.0 size=   10240KiB time=00:00:06.43 bitrate=13039.3kbits/s speed=0.0217x elapsed=0:04:56.17    \nframe=  387 fps=1.3 q=39.0 size=   10240KiB time=00:00:06.45 bitrate=13005.6kbits/s speed=0.0217x elapsed=0:04:56.68    \nframe=  389 fps=1.3 q=37.0 size=   10240KiB time=00:00:06.48 bitrate=12938.7kbits/s speed=0.0218x elapsed=0:04:57.20    \nframe=  390 fps=1.3 q=35.0 size=   10240KiB time=00:00:06.50 bitrate=12905.6kbits/s speed=0.0218x elapsed=0:04:57.71    \nframe=  391 fps=1.3 q=35.0 size=   10240KiB time=00:00:06.51 bitrate=12872.5kbits/s speed=0.0219x elapsed=0:04:58.24    \nframe=  393 fps=1.3 q=34.0 size=   10240KiB time=00:00:06.55 bitrate=12807.0kbits/s speed=0.0219x elapsed=0:04:58.75    \nframe=  394 fps=1.3 q=36.0 size=   10240KiB time=00:00:06.56 bitrate=12774.5kbits/s speed=0.0219x elapsed=0:04:59.26    \nframe=  395 fps=1.3 q=34.0 size=   10240KiB time=00:00:06.58 bitrate=12742.2kbits/s speed=0.022x elapsed=0:04:59.78    \nframe=  396 fps=1.3 q=36.0 size=   10240KiB time=00:00:06.60 bitrate=12710.0kbits/s speed=0.022x elapsed=0:05:00.29    \nframe=  396 fps=1.3 q=36.0 size=   10240KiB time=00:00:06.60 bitrate=12710.0kbits/s speed=0.0219x elapsed=0:05:00.82    \nframe=  397 fps=1.3 q=20.0 size=   10240KiB time=00:00:06.61 bitrate=12678.0kbits/s speed=0.022x elapsed=0:05:01.32    \nframe=  398 fps=1.3 q=36.0 size=   10240KiB time=00:00:06.63 bitrate=12646.1kbits/s speed=0.022x elapsed=0:05:01.84    \nframe=  399 fps=1.3 q=35.0 size=   10240KiB time=00:00:06.65 bitrate=12614.4kbits/s speed=0.022x elapsed=0:05:02.36    \nframe=  400 fps=1.3 q=34.0 size=   10240KiB time=00:00:06.66 bitrate=12582.9kbits/s speed=0.022x elapsed=0:05:02.88    \nframe=  401 fps=1.3 q=37.0 size=   10240KiB time=00:00:06.68 bitrate=12551.5kbits/s speed=0.022x elapsed=0:05:03.39    \nframe=  402 fps=1.3 q=34.0 size=   10240KiB time=00:00:06.70 bitrate=12520.3kbits/s speed=0.022x elapsed=0:05:03.90    \nframe=  403 fps=1.3 q=36.0 size=   10240KiB time=00:00:06.71 bitrate=12489.2kbits/s speed=0.0221x elapsed=0:05:04.42    \nframe=  404 fps=1.3 q=34.0 size=   10240KiB time=00:00:06.73 bitrate=12458.3kbits/s speed=0.0221x elapsed=0:05:04.93    \nframe=  405 fps=1.3 q=36.0 size=   10240KiB time=00:00:06.75 bitrate=12427.6kbits/s speed=0.0221x elapsed=0:05:05.45    \nframe=  407 fps=1.3 q=35.0 size=   10240KiB time=00:00:06.78 bitrate=12366.5kbits/s speed=0.0222x elapsed=0:05:05.97    \nframe=  408 fps=1.3 q=35.0 size=   10240KiB time=00:00:06.80 bitrate=12336.2kbits/s speed=0.0222x elapsed=0:05:06.48    \nframe=  408 fps=1.3 q=35.0 size=   10240KiB time=00:00:06.80 bitrate=12336.2kbits/s speed=0.0221x elapsed=0:05:07.00    \nframe=  409 fps=1.3 q=24.0 size=   10240KiB time=00:00:06.81 bitrate=12306.0kbits/s speed=0.0222x elapsed=0:05:07.52    \nframe=  411 fps=1.3 q=35.0 size=   10240KiB time=00:00:06.85 bitrate=12246.1kbits/s speed=0.0222x elapsed=0:05:08.03    \nframe=  412 fps=1.3 q=34.0 size=   10240KiB time=00:00:06.86 bitrate=12216.4kbits/s speed=0.0223x elapsed=0:05:08.54    \nframe=  413 fps=1.3 q=36.0 size=   10240KiB time=00:00:06.88 bitrate=12186.8kbits/s speed=0.0223x elapsed=0:05:09.06    \nframe=  414 fps=1.3 q=35.0 size=   10240KiB time=00:00:06.90 bitrate=12157.4kbits/s speed=0.0223x elapsed=0:05:09.57    \nframe=  416 fps=1.3 q=35.0 size=   10240KiB time=00:00:06.93 bitrate=12099.0kbits/s speed=0.0224x elapsed=0:05:10.09    \nframe=  417 fps=1.3 q=35.0 size=   10240KiB time=00:00:06.95 bitrate=12069.9kbits/s speed=0.0224x elapsed=0:05:10.60    \nframe=  418 fps=1.3 q=36.0 size=   10240KiB time=00:00:06.96 bitrate=12041.1kbits/s speed=0.0224x elapsed=0:05:11.12    \nframe=  419 fps=1.3 q=35.0 size=   10240KiB time=00:00:06.98 bitrate=12012.3kbits/s speed=0.0224x elapsed=0:05:11.63    \nframe=  420 fps=1.3 q=35.0 size=   10240KiB time=00:00:07.00 bitrate=11983.7kbits/s speed=0.0224x elapsed=0:05:12.16    \nframe=  420 fps=1.3 q=35.0 size=   10240KiB time=00:00:07.00 bitrate=11983.7kbits/s speed=0.0224x elapsed=0:05:12.67    \nframe=  420 fps=1.3 q=35.0 size=   10240KiB time=00:00:07.00 bitrate=11983.7kbits/s speed=0.0224x elapsed=0:05:13.19    \nframe=  421 fps=1.3 q=24.0 size=   10240KiB time=00:00:07.01 bitrate=11955.3kbits/s speed=0.0224x elapsed=0:05:13.69    \nframe=  422 fps=1.3 q=35.0 size=   10240KiB time=00:00:07.03 bitrate=11926.9kbits/s speed=0.0224x elapsed=0:05:14.22    \nframe=  423 fps=1.3 q=35.0 size=   10240KiB time=00:00:07.05 bitrate=11898.7kbits/s speed=0.0224x elapsed=0:05:14.73    \nframe=  425 fps=1.3 q=35.0 size=   10240KiB time=00:00:07.08 bitrate=11842.7kbits/s speed=0.0225x elapsed=0:05:15.24    \nframe=  426 fps=1.3 q=36.0 size=   10240KiB time=00:00:07.10 bitrate=11814.9kbits/s speed=0.0225x elapsed=0:05:15.76    \nframe=  426 fps=1.3 q=36.0 size=   10240KiB time=00:00:07.10 bitrate=11814.9kbits/s speed=0.0224x elapsed=0:05:16.28    \nframe=  428 fps=1.4 q=36.0 size=   10240KiB time=00:00:07.13 bitrate=11759.7kbits/s speed=0.0225x elapsed=0:05:16.79    \nframe=  429 fps=1.4 q=35.0 size=   10240KiB time=00:00:07.15 bitrate=11732.3kbits/s speed=0.0225x elapsed=0:05:17.31    \nframe=  429 fps=1.3 q=35.0 size=   10240KiB time=00:00:07.15 bitrate=11732.3kbits/s speed=0.0225x elapsed=0:05:17.83    \nframe=  430 fps=1.4 q=34.0 size=   10240KiB time=00:00:07.16 bitrate=11705.0kbits/s speed=0.0225x elapsed=0:05:18.34    \nframe=  431 fps=1.4 q=36.0 size=   10240KiB time=00:00:07.18 bitrate=11677.9kbits/s speed=0.0225x elapsed=0:05:18.86    \nframe=  432 fps=1.4 q=35.0 size=   10240KiB time=00:00:07.20 bitrate=11650.8kbits/s speed=0.0225x elapsed=0:05:19.37    \nframe=  432 fps=1.4 q=35.0 size=   10240KiB time=00:00:07.20 bitrate=11650.8kbits/s speed=0.0225x elapsed=0:05:19.89    \nframe=  432 fps=1.3 q=35.0 size=   10240KiB time=00:00:07.20 bitrate=11650.8kbits/s speed=0.0225x elapsed=0:05:20.40    \nframe=  434 fps=1.4 q=35.0 size=   10240KiB time=00:00:07.23 bitrate=11597.2kbits/s speed=0.0225x elapsed=0:05:20.92    \nframe=  435 fps=1.4 q=34.0 size=   10240KiB time=00:00:07.25 bitrate=11570.5kbits/s speed=0.0226x elapsed=0:05:21.43    \nframe=  436 fps=1.4 q=35.0 size=   10240KiB time=00:00:07.26 bitrate=11544.0kbits/s speed=0.0226x elapsed=0:05:21.95    \nframe=  437 fps=1.4 q=33.0 size=   10240KiB time=00:00:07.28 bitrate=11517.5kbits/s speed=0.0226x elapsed=0:05:22.47    \nframe=  438 fps=1.4 q=36.0 size=   10240KiB time=00:00:07.30 bitrate=11491.2kbits/s speed=0.0226x elapsed=0:05:22.98    \nframe=  439 fps=1.4 q=35.0 size=   10240KiB time=00:00:07.31 bitrate=11465.1kbits/s speed=0.0226x elapsed=0:05:23.49    \nframe=  440 fps=1.4 q=34.0 size=   10240KiB time=00:00:07.33 bitrate=11439.0kbits/s speed=0.0226x elapsed=0:05:24.01    \nframe=  441 fps=1.4 q=35.0 size=   10240KiB time=00:00:07.35 bitrate=11413.1kbits/s speed=0.0226x elapsed=0:05:24.53    \nframe=  442 fps=1.4 q=36.0 size=   10240KiB time=00:00:07.36 bitrate=11387.3kbits/s speed=0.0227x elapsed=0:05:25.04    \nframe=  442 fps=1.4 q=36.0 size=   10240KiB time=00:00:07.36 bitrate=11387.3kbits/s speed=0.0226x elapsed=0:05:25.55    \nframe=  443 fps=1.4 q=35.0 size=   10240KiB time=00:00:07.38 bitrate=11361.5kbits/s speed=0.0226x elapsed=0:05:26.07    \nframe=  444 fps=1.4 q=35.0 size=   10240KiB time=00:00:07.40 bitrate=11336.0kbits/s speed=0.0227x elapsed=0:05:26.59    \nframe=  444 fps=1.4 q=35.0 size=   10240KiB time=00:00:07.40 bitrate=11336.0kbits/s speed=0.0226x elapsed=0:05:27.11    \nframe=  445 fps=1.4 q=24.0 size=   10240KiB time=00:00:07.41 bitrate=11310.5kbits/s speed=0.0226x elapsed=0:05:27.62    \nframe=  446 fps=1.4 q=35.0 size=   10240KiB time=00:00:07.43 bitrate=11285.1kbits/s speed=0.0227x elapsed=0:05:28.14    \nframe=  446 fps=1.4 q=35.0 size=   10240KiB time=00:00:07.43 bitrate=11285.1kbits/s speed=0.0226x elapsed=0:05:28.66    \nframe=  447 fps=1.4 q=33.0 size=   10240KiB time=00:00:07.45 bitrate=11259.9kbits/s speed=0.0226x elapsed=0:05:29.18    \nframe=  448 fps=1.4 q=36.0 size=   10240KiB time=00:00:07.46 bitrate=11234.7kbits/s speed=0.0226x elapsed=0:05:29.70    \nframe=  449 fps=1.4 q=35.0 size=   10240KiB time=00:00:07.48 bitrate=11209.7kbits/s speed=0.0227x elapsed=0:05:30.22    \nframe=  450 fps=1.4 q=35.0 size=   10240KiB time=00:00:07.50 bitrate=11184.8kbits/s speed=0.0227x elapsed=0:05:30.74    \nframe=  451 fps=1.4 q=34.0 size=   10240KiB time=00:00:07.51 bitrate=11160.0kbits/s speed=0.0227x elapsed=0:05:31.24    \nframe=  451 fps=1.4 q=34.0 size=   10240KiB time=00:00:07.51 bitrate=11160.0kbits/s speed=0.0227x elapsed=0:05:31.75    \nframe=  452 fps=1.4 q=34.0 size=   10240KiB time=00:00:07.53 bitrate=11135.3kbits/s speed=0.0227x elapsed=0:05:32.28    \nframe=  453 fps=1.4 q=34.0 size=   10240KiB time=00:00:07.55 bitrate=11110.7kbits/s speed=0.0227x elapsed=0:05:32.79    \nframe=  454 fps=1.4 q=35.0 size=   10240KiB time=00:00:07.56 bitrate=11086.3kbits/s speed=0.0227x elapsed=0:05:33.30    \nframe=  455 fps=1.4 q=35.0 size=   10240KiB time=00:00:07.58 bitrate=11061.9kbits/s speed=0.0227x elapsed=0:05:33.83    \nframe=  456 fps=1.4 q=35.0 size=   10240KiB time=00:00:07.60 bitrate=11037.6kbits/s speed=0.0227x elapsed=0:05:34.34    \nframe=  456 fps=1.4 q=35.0 size=   10240KiB time=00:00:07.60 bitrate=11037.6kbits/s speed=0.0227x elapsed=0:05:34.86    \nframe=  457 fps=1.4 q=23.0 size=   10240KiB time=00:00:07.61 bitrate=11013.5kbits/s speed=0.0227x elapsed=0:05:35.38    \nframe=  458 fps=1.4 q=35.0 size=   10240KiB time=00:00:07.63 bitrate=10989.4kbits/s speed=0.0227x elapsed=0:05:35.89    \nframe=  460 fps=1.4 q=36.0 size=   10240KiB time=00:00:07.66 bitrate=10941.7kbits/s speed=0.0228x elapsed=0:05:36.40    \nframe=  461 fps=1.4 q=34.0 size=   10240KiB time=00:00:07.68 bitrate=10917.9kbits/s speed=0.0228x elapsed=0:05:37.03    \nframe=  463 fps=1.4 q=35.0 size=   10240KiB time=00:00:07.71 bitrate=10870.8kbits/s speed=0.0229x elapsed=0:05:37.56    \nframe=  463 fps=1.4 q=35.0 size=   10240KiB time=00:00:07.71 bitrate=10870.8kbits/s speed=0.0228x elapsed=0:05:38.11    \nframe=  465 fps=1.4 q=35.0 size=   10240KiB time=00:00:07.75 bitrate=10824.0kbits/s speed=0.0229x elapsed=0:05:38.63    \nframe=  466 fps=1.4 q=35.0 size=   10240KiB time=00:00:07.76 bitrate=10800.8kbits/s speed=0.0229x elapsed=0:05:39.20    \nframe=  467 fps=1.4 q=34.0 size=   10240KiB time=00:00:07.78 bitrate=10777.7kbits/s speed=0.0229x elapsed=0:05:39.81    \nframe=  468 fps=1.4 q=34.0 size=   10240KiB time=00:00:07.80 bitrate=10754.6kbits/s speed=0.0229x elapsed=0:05:40.39    \nframe=  468 fps=1.4 q=34.0 size=   10240KiB time=00:00:07.80 bitrate=10754.6kbits/s speed=0.0229x elapsed=0:05:41.01    \nframe=  470 fps=1.4 q=35.0 size=   10240KiB time=00:00:07.83 bitrate=10708.9kbits/s speed=0.0229x elapsed=0:05:41.53    \nframe=  471 fps=1.4 q=34.0 size=   10240KiB time=00:00:07.85 bitrate=10686.1kbits/s speed=0.0229x elapsed=0:05:42.07    \nframe=  471 fps=1.4 q=34.0 size=   10240KiB time=00:00:07.85 bitrate=10686.1kbits/s speed=0.0229x elapsed=0:05:42.59    \nframe=  472 fps=1.4 q=35.0 size=   10240KiB time=00:00:07.86 bitrate=10663.5kbits/s speed=0.0229x elapsed=0:05:43.10    \nframe=  473 fps=1.4 q=34.0 size=   10240KiB time=00:00:07.88 bitrate=10640.9kbits/s speed=0.0229x elapsed=0:05:43.62    \nframe=  473 fps=1.4 q=34.0 size=   10240KiB time=00:00:07.88 bitrate=10640.9kbits/s speed=0.0229x elapsed=0:05:44.13    \nframe=  474 fps=1.4 q=35.0 size=   10240KiB time=00:00:07.90 bitrate=10618.5kbits/s speed=0.0229x elapsed=0:05:44.65    \nframe=  474 fps=1.4 q=35.0 size=   10240KiB time=00:00:07.90 bitrate=10618.5kbits/s speed=0.0229x elapsed=0:05:45.16    \nframe=  475 fps=1.4 q=35.0 size=   10240KiB time=00:00:07.91 bitrate=10596.1kbits/s speed=0.0229x elapsed=0:05:45.69    \nframe=  476 fps=1.4 q=35.0 size=   10240KiB time=00:00:07.93 bitrate=10573.9kbits/s speed=0.0229x elapsed=0:05:46.22    \nframe=  477 fps=1.4 q=35.0 size=   10240KiB time=00:00:07.95 bitrate=10551.7kbits/s speed=0.0229x elapsed=0:05:46.75    \nframe=  478 fps=1.4 q=34.0 size=   10240KiB time=00:00:07.96 bitrate=10529.6kbits/s speed=0.0229x elapsed=0:05:47.33    \nframe=  480 fps=1.4 q=35.0 size=   10240KiB time=00:00:08.00 bitrate=10485.8kbits/s speed=0.023x elapsed=0:05:47.84    \nframe=  480 fps=1.4 q=35.0 size=   10240KiB time=00:00:08.00 bitrate=10485.8kbits/s speed=0.023x elapsed=0:05:48.40    \nframe=  481 fps=1.4 q=23.0 size=   10240KiB time=00:00:08.01 bitrate=10464.0kbits/s speed=0.023x elapsed=0:05:48.93    \nframe=  482 fps=1.4 q=35.0 size=   10240KiB time=00:00:08.03 bitrate=10442.3kbits/s speed=0.023x elapsed=0:05:49.48    \nframe=  484 fps=1.4 q=34.0 size=   10240KiB time=00:00:08.06 bitrate=10399.1kbits/s speed=0.023x elapsed=0:05:50.02    \nframe=  486 fps=1.4 q=35.0 size=   10240KiB time=00:00:08.10 bitrate=10356.3kbits/s speed=0.0231x elapsed=0:05:50.56    \nframe=  488 fps=1.4 q=35.0 size=   10240KiB time=00:00:08.13 bitrate=10313.9kbits/s speed=0.0232x elapsed=0:05:51.09    \nframe=  490 fps=1.4 q=35.0 size=   10240KiB time=00:00:08.15 bitrate=10292.8kbits/s speed=0.0232x elapsed=0:05:51.62    \nframe=  491 fps=1.4 q=35.0 size=   10240KiB time=00:00:08.18 bitrate=10250.8kbits/s speed=0.0232x elapsed=0:05:52.19    \nframe=  492 fps=1.4 q=35.0 size=   10240KiB time=00:00:08.20 bitrate=10230.0kbits/s speed=0.0232x elapsed=0:05:52.75    \nframe=  492 fps=1.4 q=35.0 size=   10240KiB time=00:00:08.20 bitrate=10230.0kbits/s speed=0.0232x elapsed=0:05:53.27    \nframe=  494 fps=1.4 q=36.0 size=   10240KiB time=00:00:08.21 bitrate=10209.3kbits/s speed=0.0232x elapsed=0:05:53.79    \nframe=  495 fps=1.4 q=34.0 size=   10240KiB time=00:00:08.25 bitrate=10168.0kbits/s speed=0.0233x elapsed=0:05:54.32    \nframe=  497 fps=1.4 q=34.0 size=   10240KiB time=00:00:08.28 bitrate=10127.1kbits/s speed=0.0233x elapsed=0:05:54.86    \nframe=  498 fps=1.4 q=35.0 size=   10240KiB time=00:00:08.30 bitrate=10106.8kbits/s speed=0.0234x elapsed=0:05:55.37    \nframe=  500 fps=1.4 q=35.0 size=   10240KiB time=00:00:08.33 bitrate=10066.3kbits/s speed=0.0234x elapsed=0:05:55.90    \nframe=  501 fps=1.4 q=35.0 size=   10240KiB time=00:00:08.35 bitrate=10046.2kbits/s speed=0.0234x elapsed=0:05:56.47    \nframe=  502 fps=1.4 q=35.0 size=   10240KiB time=00:00:08.36 bitrate=10026.2kbits/s speed=0.0234x elapsed=0:05:57.02    \nframe=  503 fps=1.4 q=24.0 size=   10240KiB time=00:00:08.38 bitrate=10006.3kbits/s speed=0.0234x elapsed=0:05:57.65    \nframe=  504 fps=1.4 q=35.0 size=   10240KiB time=00:00:08.40 bitrate=9986.4kbits/s speed=0.0234x elapsed=0:05:58.31    \nframe=  506 fps=1.4 q=35.0 size=   10240KiB time=00:00:08.43 bitrate=9947.0kbits/s speed=0.0235x elapsed=0:05:58.93    \nframe=  508 fps=1.4 q=35.0 size=   10240KiB time=00:00:08.46 bitrate=9907.8kbits/s speed=0.0235x elapsed=0:05:59.56    \nframe=  509 fps=1.4 q=35.0 size=   10240KiB time=00:00:08.48 bitrate=9888.3kbits/s speed=0.0235x elapsed=0:06:00.28    \nframe=  511 fps=1.4 q=35.0 size=   10240KiB time=00:00:08.51 bitrate=9849.6kbits/s speed=0.0236x elapsed=0:06:00.94    \nframe=  512 fps=1.4 q=35.0 size=   10240KiB time=00:00:08.53 bitrate=9830.4kbits/s speed=0.0236x elapsed=0:06:01.58    \nframe=  513 fps=1.4 q=23.0 size=   10240KiB time=00:00:08.55 bitrate=9811.2kbits/s speed=0.0236x elapsed=0:06:02.23    \nframe=  515 fps=1.4 q=35.0 size=   13824KiB time=00:00:08.56 bitrate=13219.4kbits/s speed=0.0236x elapsed=0:06:02.77    \nframe=  516 fps=1.4 q=36.0 size=   13824KiB time=00:00:08.60 bitrate=13168.2kbits/s speed=0.0237x elapsed=0:06:03.36    \nframe=  518 fps=1.4 q=35.0 size=   13824KiB time=00:00:08.63 bitrate=13117.3kbits/s speed=0.0237x elapsed=0:06:03.97    \nframe=  520 fps=1.4 q=35.0 size=   13824KiB time=00:00:08.65 bitrate=13092.0kbits/s speed=0.0237x elapsed=0:06:04.61    \nframe=  521 fps=1.4 q=35.0 size=   13824KiB time=00:00:08.68 bitrate=13041.8kbits/s speed=0.0238x elapsed=0:06:05.23    \nframe=  523 fps=1.4 q=35.0 size=   13824KiB time=00:00:08.71 bitrate=12991.9kbits/s speed=0.0238x elapsed=0:06:05.83    \nframe=  524 fps=1.4 q=23.0 size=   13824KiB time=00:00:08.71 bitrate=12991.9kbits/s speed=0.0238x elapsed=0:06:06.41    \nframe=  526 fps=1.4 q=34.0 size=   13824KiB time=00:00:08.75 bitrate=12942.4kbits/s speed=0.0238x elapsed=0:06:06.99    \nframe=  527 fps=1.4 q=34.0 size=   13824KiB time=00:00:08.78 bitrate=12893.3kbits/s speed=0.0239x elapsed=0:06:07.61    \nframe=  529 fps=1.4 q=34.0 size=   13824KiB time=00:00:08.80 bitrate=12868.9kbits/s speed=0.0239x elapsed=0:06:08.28    \nframe=  530 fps=1.4 q=34.0 size=   13824KiB time=00:00:08.83 bitrate=12820.3kbits/s speed=0.0239x elapsed=0:06:08.98    \nframe=  532 fps=1.4 q=35.0 size=   13824KiB time=00:00:08.86 bitrate=12772.1kbits/s speed=0.024x elapsed=0:06:09.66    \nframe=  533 fps=1.4 q=35.0 size=   13824KiB time=00:00:08.88 bitrate=12748.2kbits/s speed=0.024x elapsed=0:06:10.29    \nframe=  534 fps=1.4 q=35.0 size=   13824KiB time=00:00:08.90 bitrate=12724.3kbits/s speed=0.024x elapsed=0:06:10.93    \nframe=  534 fps=1.4 q=35.0 size=   13824KiB time=00:00:08.90 bitrate=12724.3kbits/s speed=0.024x elapsed=0:06:11.58    \nframe=  536 fps=1.4 q=34.0 size=   13824KiB time=00:00:08.93 bitrate=12676.8kbits/s speed=0.024x elapsed=0:06:12.20    \nframe=  538 fps=1.4 q=35.0 size=   13824KiB time=00:00:08.96 bitrate=12629.7kbits/s speed=0.024x elapsed=0:06:12.88    \nframe=  539 fps=1.4 q=35.0 size=   13824KiB time=00:00:08.98 bitrate=12606.3kbits/s speed=0.024x elapsed=0:06:13.54    \nframe=  541 fps=1.4 q=35.0 size=   13824KiB time=00:00:09.01 bitrate=12559.7kbits/s speed=0.0241x elapsed=0:06:14.20    \nframe=  542 fps=1.4 q=35.0 size=   13824KiB time=00:00:09.03 bitrate=12536.5kbits/s speed=0.0241x elapsed=0:06:14.88    \nframe=  544 fps=1.4 q=34.0 size=   13824KiB time=00:00:09.06 bitrate=12490.4kbits/s speed=0.0241x elapsed=0:06:15.52    \nframe=  546 fps=1.5 q=35.0 size=   13824KiB time=00:00:09.08 bitrate=12467.5kbits/s speed=0.0241x elapsed=0:06:16.19    \nframe=  546 fps=1.4 q=35.0 size=   13824KiB time=00:00:09.10 bitrate=12444.6kbits/s speed=0.0241x elapsed=0:06:16.90    \nframe=  547 fps=1.4 q=24.0 size=   13824KiB time=00:00:09.11 bitrate=12421.9kbits/s speed=0.0241x elapsed=0:06:17.63    \nframe=  549 fps=1.5 q=33.0 size=   13824KiB time=00:00:09.15 bitrate=12376.6kbits/s speed=0.0242x elapsed=0:06:18.32    \nframe=  550 fps=1.5 q=33.0 size=   13824KiB time=00:00:09.16 bitrate=12354.1kbits/s speed=0.0242x elapsed=0:06:18.96    \nframe=  552 fps=1.5 q=34.0 size=   13824KiB time=00:00:09.20 bitrate=12309.4kbits/s speed=0.0242x elapsed=0:06:19.59    \nframe=  554 fps=1.5 q=33.0 size=   13824KiB time=00:00:09.21 bitrate=12287.1kbits/s speed=0.0242x elapsed=0:06:20.33    \nframe=  555 fps=1.5 q=34.0 size=   13824KiB time=00:00:09.25 bitrate=12242.8kbits/s speed=0.0243x elapsed=0:06:20.98    \nframe=  556 fps=1.5 q=34.0 size=   13824KiB time=00:00:09.26 bitrate=12220.8kbits/s speed=0.0243x elapsed=0:06:21.58    \nframe=  558 fps=1.5 q=34.0 size=   13824KiB time=00:00:09.30 bitrate=12177.0kbits/s speed=0.0243x elapsed=0:06:22.20    \nframe=  558 fps=1.5 q=34.0 size=   13824KiB time=00:00:09.30 bitrate=12177.0kbits/s speed=0.0243x elapsed=0:06:22.83    \nframe=  560 fps=1.5 q=34.0 size=   13824KiB time=00:00:09.33 bitrate=12133.5kbits/s speed=0.0243x elapsed=0:06:23.39    \nframe=  562 fps=1.5 q=34.0 size=   13824KiB time=00:00:09.36 bitrate=12090.3kbits/s speed=0.0244x elapsed=0:06:24.04    \nframe=  563 fps=1.5 q=33.0 size=   13824KiB time=00:00:09.38 bitrate=12068.9kbits/s speed=0.0244x elapsed=0:06:24.66    \nframe=  565 fps=1.5 q=34.0 size=   13824KiB time=00:00:09.41 bitrate=12026.1kbits/s speed=0.0244x elapsed=0:06:25.37    \nframe=  566 fps=1.5 q=34.0 size=   13824KiB time=00:00:09.43 bitrate=12004.9kbits/s speed=0.0244x elapsed=0:06:26.01    \nframe=  567 fps=1.5 q=34.0 size=   13824KiB time=00:00:09.45 bitrate=11983.7kbits/s speed=0.0244x elapsed=0:06:26.61    \nframe=  569 fps=1.5 q=34.0 size=   13824KiB time=00:00:09.48 bitrate=11941.6kbits/s speed=0.0245x elapsed=0:06:27.21    \nframe=  570 fps=1.5 q=35.0 size=   13824KiB time=00:00:09.50 bitrate=11920.7kbits/s speed=0.0245x elapsed=0:06:27.84    \nframe=  571 fps=1.5 q=23.0 size=   13824KiB time=00:00:09.51 bitrate=11899.8kbits/s speed=0.0245x elapsed=0:06:28.56    \nframe=  573 fps=1.5 q=33.0 size=   13824KiB time=00:00:09.55 bitrate=11858.2kbits/s speed=0.0245x elapsed=0:06:29.23    \nframe=  574 fps=1.5 q=34.0 size=   13824KiB time=00:00:09.56 bitrate=11837.6kbits/s speed=0.0245x elapsed=0:06:29.88    \nframe=  576 fps=1.5 q=34.0 size=   13824KiB time=00:00:09.60 bitrate=11796.5kbits/s speed=0.0246x elapsed=0:06:30.50    \nframe=  576 fps=1.5 q=34.0 size=   13824KiB time=00:00:09.60 bitrate=11796.5kbits/s speed=0.0245x elapsed=0:06:31.10    \nframe=  576 fps=1.5 q=34.0 size=   13824KiB time=00:00:09.60 bitrate=11796.5kbits/s speed=0.0245x elapsed=0:06:31.75    \nframe=  576 fps=1.5 q=34.0 size=   13824KiB time=00:00:09.60 bitrate=11796.5kbits/s speed=0.0245x elapsed=0:06:32.39    \nframe=  576 fps=1.5 q=34.0 size=   13824KiB time=00:00:09.60 bitrate=11796.5kbits/s speed=0.0244x elapsed=0:06:33.04    \nframe=  576 fps=1.5 q=34.0 size=   13824KiB time=00:00:09.60 bitrate=11796.5kbits/s speed=0.0244x elapsed=0:06:33.69    \nframe=  576 fps=1.5 q=34.0 size=   13824KiB time=00:00:09.60 bitrate=11796.5kbits/s speed=0.0243x elapsed=0:06:34.37    \nframe=  576 fps=1.5 q=34.0 size=   13824KiB time=00:00:09.60 bitrate=11796.5kbits/s speed=0.0243x elapsed=0:06:35.07    \nframe=  576 fps=1.5 q=34.0 size=   13824KiB time=00:00:09.60 bitrate=11796.5kbits/s speed=0.0243x elapsed=0:06:35.67    \nframe=  576 fps=1.5 q=34.0 size=   13824KiB time=00:00:09.60 bitrate=11796.5kbits/s speed=0.0242x elapsed=0:06:36.25    \nframe=  576 fps=1.5 q=34.0 size=   13824KiB time=00:00:09.60 bitrate=11796.5kbits/s speed=0.0242x elapsed=0:06:36.86    \nframe=  576 fps=1.4 q=34.0 size=   13824KiB time=00:00:09.60 bitrate=11796.5kbits/s speed=0.0241x elapsed=0:06:37.61    \nframe=  576 fps=1.4 q=34.0 size=   13824KiB time=00:00:09.60 bitrate=11796.5kbits/s speed=0.0241x elapsed=0:06:38.33    \nframe=  576 fps=1.4 q=34.0 size=   13824KiB time=00:00:09.60 bitrate=11796.5kbits/s speed=0.0241x elapsed=0:06:38.89    \nframe=  576 fps=1.4 q=34.0 size=   13824KiB time=00:00:09.60 bitrate=11796.5kbits/s speed=0.024x elapsed=0:06:39.60    \nframe=  576 fps=1.4 q=34.0 size=   13824KiB time=00:00:09.60 bitrate=11796.5kbits/s speed=0.024x elapsed=0:06:40.23    \nframe=  576 fps=1.4 q=34.0 size=   13824KiB time=00:00:09.60 bitrate=11796.5kbits/s speed=0.024x elapsed=0:06:40.79    \nframe=  576 fps=1.4 q=34.0 size=   13824KiB time=00:00:09.60 bitrate=11796.5kbits/s speed=0.0239x elapsed=0:06:41.39    \n[out#0/webm @ 0000028cd9bf6cc0] video:16317KiB audio:0KiB subtitle:0KiB other streams:0KiB global headers:0KiB muxing overhead: 0.030236%\nframe=  600 fps=1.5 q=34.0 Lsize=   16322KiB time=00:00:10.00 bitrate=13370.9kbits/s speed=0.0249x elapsed=0:06:41.74    \n",
  "seconds": 402.31153082847595,
  "probe_out": {}
}